<?xml version="1.0" standalone="no"?>
<!DOCTYPE svg PUBLIC "-//W3C//DTD SVG 1.1//EN" "http://www.w3.org/Graphics/SVG/1.1/DTD/svg11.dtd" >
<svg xmlns="http://www.w3.org/2000/svg">
<metadata></metadata>
<defs>
<font id="boomerang_typeregular" horiz-adv-x="1705" >
<font-face units-per-em="2048" ascent="1536" descent="-512" />
<missing-glyph horiz-adv-x="1024" />
<glyph horiz-adv-x="0" />
<glyph unicode="&#xd;" horiz-adv-x="1024" />
<glyph unicode=" "  horiz-adv-x="1024" />
<glyph unicode="&#x09;" horiz-adv-x="1024" />
<glyph unicode="&#xa0;" horiz-adv-x="1024" />
<glyph unicode="!" horiz-adv-x="694" d="M82 262q0 57 18.5 102.5t53.5 79.5q61 70 180 70q59 0 107 -16.5t83 -51.5q70 -74 70 -184q-7 -144 -70 -205q-35 -31 -83 -45t-107 -14q-61 0 -106.5 17.5t-77.5 50.5q-31 35 -49.5 83t-18.5 113zM82 850v1139q0 53 19.5 99t54 81t81 54.5t99.5 19.5t99 -19.5t81 -54.5 t55.5 -81t20.5 -99v-1139q0 -53 -20.5 -99t-55.5 -81t-81 -54.5t-99 -19.5t-99.5 19.5t-81 54.5t-54 81t-19.5 99z" />
<glyph unicode="(" horiz-adv-x="1015" d="M104 1061q0 199 26 366.5t66 303t88 240t93 175.5q31 51 78 84t100 45.5t109.5 4t107.5 -38.5q51 -31 84 -78t45 -100.5t4 -110t-39 -107.5q-27 -43 -59.5 -112.5t-61 -166t-48 -223t-19.5 -282.5q0 -152 19.5 -274.5t48 -218t61.5 -164t59 -113.5q31 -51 39 -107.5 t-4 -110t-45 -100.5t-84 -77q-72 -41 -149 -41q-72 0 -138.5 35.5t-107.5 101.5q-43 72 -92 175t-89 237.5t-66 298t-26 358.5z" />
<glyph unicode=")" horiz-adv-x="1083" d="M147 1952.5q-8 56.5 4.5 110t45 100.5t84.5 78q51 31 107 39t109.5 -4.5t100.5 -45t78 -84.5q45 -72 93 -176t88 -239.5t65.5 -303t25.5 -366.5q0 -195 -25.5 -358.5t-65.5 -298t-89 -237.5t-92 -175q-41 -66 -107.5 -101.5t-138.5 -35.5q-78 0 -149 41q-51 31 -84 77.5 t-45.5 100t-4 110t38.5 107.5q27 45 60 113.5t61.5 164t48 218t19.5 274.5q0 156 -19.5 282.5t-48 223t-61.5 166t-60 112.5q-31 51 -39 107.5z" />
<glyph unicode="," horiz-adv-x="694" d="M59 256q2 141 74 197q63 68 184 63q49 0 87 -12t69 -35q51 -31 86 -83t52.5 -118.5t17.5 -142.5t-21 -152q-16 -72 -44.5 -131t-59.5 -100q-49 -66 -93 -76t-67 15q-18 16 -15 38.5t13 48t20.5 55.5t10.5 62q-2 33 -13.5 55.5t-27 37t-31.5 21.5t-29 11q-84 12 -139 64 q-70 68 -74 182z" />
<glyph unicode="." horiz-adv-x="647" d="M66 262q0 57 18 102.5t53 79.5q61 70 180 70q59 0 107.5 -16.5t83.5 -51.5q70 -74 70 -184q-7 -144 -70 -205q-35 -31 -83 -45t-108 -14q-61 0 -106 17.5t-78 50.5q-31 35 -49 83t-18 113z" />
<glyph unicode="0" horiz-adv-x="1966" d="M18 1092q6 604 273 874q262 268 710 262q443 0 695 -289q244 -289 250 -847q-6 -504 -256 -797q-254 -293 -691 -299q-451 6 -710 295q-264 293 -271 801zM569 1106q4 -217 115 -342q115 -127 305 -127q188 0 297 127q109 129 111 342q-4 244 -109 364q-104 123 -299 123 q-190 4 -305 -110q-55 -59 -84 -151.5t-31 -225.5z" />
<glyph unicode="1" horiz-adv-x="1150" d="M-102 1915q0 63 24.5 119.5t66.5 98.5t98 66.5t122 24.5h481q52 0 101 -16q94 -31 154.5 -111t60.5 -184v-1602q0 -66 -25 -122t-67 -98t-98 -66.5t-120 -24.5q-66 0 -122 24.5t-98 66.5t-66.5 98.5t-24.5 121.5v1293h-176q-66 0 -122 24.5t-98 66.5t-66.5 98t-24.5 122z " />
<glyph unicode="2" horiz-adv-x="1748" d="M49 313q0 74 31 137.5t84 106.5q8 6 67.5 61.5t145.5 137.5t186.5 177t190.5 182t157.5 152.5t87.5 88.5q55 57 66.5 117.5t-10 109.5t-70.5 80t-117 31q-98 0 -160.5 -35t-107.5 -80t-80 -89t-78 -60q-72 -29 -139 -19t-119.5 47t-86.5 92.5t-38 118.5q-4 47 9.5 92 t33 84t38 66.5t28.5 38.5q123 137 281.5 215t377.5 82q436 4 693 -250q98 -98 138 -223t23 -297q-4 -35 -21.5 -92.5t-54 -130t-98 -157.5t-153.5 -177q-41 -41 -86 -80t-91.5 -76t-89.5 -72t-75 -63h391q66 0 123 -24.5t100 -67.5t67.5 -100.5t24.5 -123.5q0 -55 -18 -104 q-23 -78 -85.5 -133.5t-146.5 -69.5q-27 -8 -65 -8h-1038q-66 0 -123.5 24.5t-100.5 67.5t-67.5 100.5t-24.5 122.5z" />
<glyph unicode="3" horiz-adv-x="1730" d="M51 567q4 61 35 113.5t80 85.5t112.5 39t135.5 -21q43 -16 78.5 -58t80.5 -85t108.5 -77t162.5 -34q35 -2 76 4.5t71 24.5q31 16 61.5 58t30.5 110q0 66 -26.5 102.5t-57.5 53.5q-37 20 -84 20h-133h-12q-45 0 -85 16.5t-70.5 46t-48 68.5t-17.5 82q0 14 4 35l4 16 q16 66 67.5 110t118.5 54h19q2 0 4 1t4 1h2h164q41 4 74 25q29 16 51 50t22 95q0 59 -25.5 100.5t-66.5 69.5q-29 20 -70.5 24.5t-76.5 4.5q-88 0 -139.5 -27.5t-86 -63.5t-63.5 -72t-72 -54q-72 -29 -136 -20.5t-112.5 40t-79 83.5t-34.5 114q-4 47 9 92t32.5 84t39 66.5 t29.5 37.5q59 68 118 115t126.5 78t149.5 45t190 14q436 6 690 -245q35 -35 68 -87.5t56.5 -120t34.5 -145t3 -161.5q-8 -68 -36.5 -154t-114.5 -207q86 -121 114.5 -206t36.5 -152q8 -84 -3 -162t-34.5 -145.5t-56.5 -121t-68 -85.5q-258 -252 -690 -246q-217 2 -374.5 79 t-278.5 212q-10 12 -29.5 39.5t-39 65.5t-33 83t-9.5 92z" />
<glyph unicode="4" horiz-adv-x="1863" d="M20 647v10q-4 66 23 133.5t82 122.5l940 1219q45 45 96 70q33 20 71 31.5t79 11.5q61 0 116.5 -25t95.5 -68t63.5 -100t23.5 -121v-1057q92 -14 151.5 -77.5t59.5 -149.5t-60.5 -149.5t-150.5 -77.5v-105q0 -66 -23.5 -123t-63.5 -100t-95.5 -67.5t-116.5 -24.5 t-115.5 24.5t-95.5 67.5t-64.5 100.5t-23.5 122.5v103h-740q-53 0 -98 18.5t-80 49t-54.5 72.5t-19.5 89zM741 877h271v352z" />
<glyph unicode="5" horiz-adv-x="1787" d="M72 569q4 61 35.5 113.5t82 85.5t115 39t137.5 -21q43 -16 77 -58t77 -86t104.5 -78t161.5 -34q35 0 76 6.5t72 22.5q12 6 34.5 19.5t45 36t40 56.5t23.5 81q4 39 0 87t-27.5 93t-67.5 81t-120 50q-98 18 -174 3t-143.5 -40t-136 -45t-150.5 -12q-47 4 -87 22.5t-70 49 t-47 69.5t-17 84v12v449v317v10q0 12 2 17q2 8 3 14t3 15v6q23 82 92.5 137t165.5 65q8 2 22 2q4 0 7.5 1.5t7.5 1.5l119 -3h788q4 0 7 1.5t7 1.5q37 0 74 -11q104 -12 173 -87t69 -179q0 -55 -21.5 -105.5t-59.5 -87t-88 -58t-108 -21.5h-782v-35v-150q90 29 181 41.5 t172 12.5t144.5 -7.5t100.5 -17.5q162 -47 264.5 -131t160.5 -190.5t78.5 -224.5t20.5 -230q0 -92 -18.5 -170t-48 -141.5t-67.5 -114.5t-77 -88q-66 -63 -133 -109.5t-145 -77t-170 -45t-207 -14.5q-221 0 -382 78t-284 213q-10 10 -29.5 37.5t-39 65.5t-33.5 83t-10 92z " />
<glyph unicode="6" horiz-adv-x="1771" d="M75 891q-7 108 3 248q4 80 14 167t27.5 175t46.5 175t70 167q12 25 36.5 65.5t62.5 86.5t91 92.5t126 84t167 61t213 23.5q174 0 291.5 -35.5t193.5 -80.5t114 -89t50 -59q25 -29 41 -75t15 -96t-23.5 -99t-73.5 -86q-68 -51 -154 -37t-163 68q-41 29 -74 48t-67.5 29.5 t-76.5 14.5t-100 2q-100 -4 -161.5 -44t-95.5 -96.5t-47 -119t-17 -109.5q63 41 144 68.5t181 32.5q80 4 158 -5.5t149.5 -32t135 -58.5t112.5 -83q104 -98 159.5 -234t57.5 -327q-6 -336 -211 -532q-201 -195 -563 -201q-367 6 -577 199q-156 141 -199 354h-2 q-20 66 -35 154q-12 76 -19 184zM670 717q0 -104 63 -166q61 -59 168 -59q109 0 168 59q59 63 59 164q0 113 -59 172t-168 59q-102 2 -168 -53q-63 -55 -63 -176z" />
<glyph unicode="7" horiz-adv-x="1681" d="M-6 1931q0 57 23.5 106.5t63.5 86.5t93 58.5t115 21.5h1069h2q6 0 17.5 -1t17.5 -3q92 -10 161 -65.5t89 -141.5q2 -10 4 -19q2 -10 3 -20t1 -23q0 -35 -11 -76q-6 -23 -16 -38l-12 -25q-4 -10 -9.5 -17.5t-5.5 -9.5l-915 -1611q-2 0 -2 -2q-2 -4 -3 -5.5t-3 -5.5 q-4 -4 -7 -9t-5 -9h-2q-61 -82 -151.5 -115t-180.5 -8q-12 2 -23 8q-10 4 -21.5 9.5t-21.5 11.5q-53 31 -87 79t-47 106t-4 120.5t44 120.5q0 2 4 8t23.5 40t60.5 106.5t117 205.5t191.5 337t283.5 503h-559h-2q-23 0 -35 4q-92 10 -160.5 65.5t-91.5 141.5l-4 20t-3 21.5 t-1 23.5z" />
<glyph unicode="8" horiz-adv-x="1665" d="M35 711q6 391 225 567h2q-98 137 -98 338q4 332 186 475q92 72 215 108.5t281 32.5q307 0 481 -157q170 -156 174 -459q-4 -205 -100 -342q4 -4 10 -8.5t10 -8.5q203 -182 207 -548q-6 -324 -211 -516q-106 -94 -247.5 -142.5t-323.5 -50.5q-367 2 -588 193 q-221 188 -223 518zM600 711q4 -104 66 -164q33 -29 74.5 -44.5t95.5 -15.5q99 1 165 62q61 66 62 162q0 117 -62 174q-59 59 -165 59q-104 2 -170 -53q-63 -55 -66 -180zM674 1610q2 -74 45 -113q39 -41 115 -41q74 0 114 41q39 39 43 113q-2 78 -43 121q-39 39 -114 38 q-72 1 -115 -36q-41 -37 -45 -123z" />
<glyph unicode="9" horiz-adv-x="1703" d="M45 1501q4 170 55.5 303t155.5 232q102 100 241.5 149t319.5 53q367 -6 584 -198q150 -139 196 -357v3q16 -66 29 -152q10 -76 18.5 -184.5t4.5 -251.5q-2 -80 -7.5 -167t-19.5 -176t-38.5 -176t-67.5 -167q-18 -39 -63.5 -109t-126.5 -137.5t-206 -117.5t-303 -50 q-174 0 -296 36t-201.5 81t-120.5 88t-54 59q-25 29 -41 75t-15 96t22.5 99.5t72.5 85.5q70 53 156 39t164 -67q41 -29 75.5 -47.5t71.5 -29.5t77 -15t93 -4q104 0 168 39.5t97.5 97t46 121t14.5 112.5q-66 -41 -146.5 -68.5t-183.5 -33.5q-158 -8 -307.5 38t-249.5 142 q-102 98 -157.5 234.5t-57.5 324.5zM596 1522q0 -111 61 -172q59 -59 168 -60q107 0 168 53q63 53 66 179q-2 53 -16.5 93t-49.5 73q-66 59 -168 59q-53 0 -94 -16.5t-74 -44.5q-29 -31 -45 -71t-16 -93z" />
<glyph unicode=":" horiz-adv-x="698" d="M88 262q0 57 18.5 102.5t53.5 79.5q61 70 180 70q59 0 107.5 -16.5t82.5 -51.5q70 -74 70 -184q-7 -144 -70 -205q-35 -31 -83 -45t-107 -14q-61 0 -106.5 17.5t-77.5 50.5q-31 35 -49.5 83t-18.5 113zM88 938q0 57 18.5 102t53.5 80q61 70 180 70q59 0 107.5 -16.5 t82.5 -51.5q70 -74 70 -184q-7 -144 -70 -205q-35 -31 -83 -45t-107 -14q-61 0 -106.5 17.5t-77.5 49.5q-31 35 -49.5 83t-18.5 114z" />
<glyph unicode=";" horiz-adv-x="518" d="M63 -383q4 -115 74 -182q55 -51 139 -64q12 -4 29 -11t32 -21.5t26.5 -37t13.5 -55.5q0 -33 -10.5 -62.5t-20.5 -55t-13 -48t15 -38.5q23 -25 67 -15t93 76q31 41 59.5 100.5t44.5 130.5q20 76 20.5 152t-17 142.5t-52.5 118.5t-86 83q-31 23 -68.5 35t-86.5 12 q-121 4 -185 -63q-72 -55 -74 -197zM66 262q0 57 18 102.5t53 79.5q61 70 180 70q59 0 107.5 -16.5t83.5 -51.5q70 -74 70 -184q-7 -144 -70 -205q-35 -31 -83 -45t-108 -14q-61 0 -106 17.5t-78 50.5q-31 35 -49 83t-18 113z" />
<glyph unicode="?" horiz-adv-x="1159" d="M-168 1769q-4 39 7 77t26.5 69t31 53.5t23.5 32.5q98 113 228.5 176.5t306.5 63.5q354 2 567 -201q80 -82 112.5 -184.5t18.5 -241.5q-4 -31 -17.5 -77t-44 -104.5t-80.5 -129t-124 -146.5q-37 -37 -66.5 -64.5t-51 -55t-34 -56.5t-14.5 -66q-4 -45 -5 -84.5t-9 -68.5 q-25 -86 -82.5 -118t-151.5 -32q-72 0 -130 30t-85 120q-10 31 -12 70.5t-2 91.5q0 66 13 119t32.5 97t45 78.5t50.5 63.5q33 37 67.5 74t63.5 69.5t51.5 57t30.5 35.5q45 45 54.5 93t-8 87t-57.5 64.5t-95 25.5q-80 0 -131.5 -27.5t-88 -64.5t-65.5 -72t-64 -49 q-59 -23 -113.5 -14.5t-97.5 38t-70.5 75.5t-29.5 95zM217 262q0 57 18.5 102.5t53.5 79.5q61 70 180 70q59 0 107.5 -16.5t82.5 -51.5q70 -74 70 -184q-7 -144 -70 -205q-35 -31 -83 -45t-107 -14q-61 0 -106.5 17.5t-77.5 50.5q-31 35 -49.5 83t-18.5 113z" />
<glyph unicode="A" horiz-adv-x="2166" d="M26 330q3 66 31 131l711 1593q23 57 73 106.5t109 77.5q25 12 57.5 17.5t66.5 5.5t67 -5t57 -18q57 -27 106.5 -73.5t75.5 -110.5l713 -1593q29 -63 31 -130v-11q0 -60 -20 -114q-22 -58 -63.5 -105.5t-103.5 -73.5q-57 -25 -117 -25h-8q-64 2 -123 26.5t-107 70.5 t-77 112l-71 162h-719l-72 -162q-29 -63 -77 -110.5t-106 -72.5q-60 -24 -124 -26h-8q-60 0 -117 25q-61 27 -103 73q-42 48 -64 106q-19 51 -18 108v16zM907 872q4 -10 11 -14q8 -6 20 -8h297q23 4 24 18v7q0 9 -2 12l-157 424q-6 10 -13.5 10t-11.5 -2q-8 -4 -12 -8 l-154 -408q-4 -12 -4 -21q0 -6 2 -10z" />
<glyph unicode="B" horiz-adv-x="2039" d="M86 313v1602q0 57 18.5 108.5t52 91t79 68.5t98.5 39q10 0 20 2q10 0 23.5 1t30.5 1h507h18q169 0 310 -36q148 -38 270 -134q55 -43 107 -124q54 -81 78 -182q15 -63 15 -130q0 -41 -6 -85q-15 -114 -93 -220q115 -47 186.5 -110.5t112.5 -142.5t55 -170t14 -192 q-6 -332 -251 -522q-127 -96 -298 -136t-382 -42q-150 0 -244 1t-152.5 1h-90.5h-55.5h-49h-70.5q-63 0 -118.5 24.5t-96.5 66.5t-64.5 98.5t-23.5 121.5zM692 604q0 -18 20.5 -49t61.5 -31h299q14 0 48 8.5t68 31t60.5 61.5t26.5 102q0 61 -26.5 101t-60.5 61.5t-68 30 t-48 8.5h-299q-41 0 -61.5 -31t-20.5 -49v-244zM709 1425q0 -16 13 -40.5t42 -24.5h203q10 0 33.5 6t47 24.5t42 50.5t18.5 83t-18.5 82.5t-42 49t-47 24t-33.5 6.5h-203q-29 0 -42 -25t-13 -39v-197z" />
<glyph unicode="C" horiz-adv-x="2232" d="M74 1098q8 602 309 868q294 262 793 262h22q510 0 791 -291l18 -22q10 -10 34.5 -38t46.5 -67q24 -38 40 -88q12 -36 12 -75q0 -14 -2 -29q-6 -66 -42 -121t-95 -89t-135 -42q-16 -2 -32 -2q-62 0 -130 25q-53 18 -89 56t-85 76q-49 37 -128 65q-74 26 -198 26h-18 q-39 0 -112 -13.5t-147.5 -57.5t-133 -129t-68.5 -232q-2 -16 -1 -50t5 -81q14 -96 48 -165t78 -116t93 -74.5t97.5 -43t88.5 -19.5t64 -4h17q113 -1 184 25q76 28 126 67t88 77t91 56q67 22 127 22q18 0 35 -2q76 -8 135 -42.5t95 -90t42 -121.5q1 -10 1 -21 q-1 -40 -13 -77q-16 -47 -39 -88q-23 -35 -49.5 -67.5t-55.5 -63.5q-287 -291 -786 -297q-514 6 -815 295q-150 147 -226.5 345t-80.5 454z" />
<glyph unicode="D" horiz-adv-x="2105" d="M127 299v815v813q4 113 72.5 196t173.5 103h6q8 0 14 2h537q41 0 82 -2q35 -2 76.5 -6t78.5 -14q82 -18 176.5 -54t187.5 -96.5t180 -145.5t153.5 -199t107.5 -260t43 -329v-8v-10q-2 -182 -43 -327.5t-107.5 -260.5t-153.5 -200t-180 -144t-187.5 -96t-176.5 -53 q-37 -10 -78.5 -15.5t-76.5 -7.5q-41 -2 -82 -2h-537q-4 0 -7 1t-7 1h-6q-104 20 -173 103t-73 196zM754 713q0 -10 13 -32t60 -22q102 0 202.5 21.5t168.5 71.5q78 53 115 134t43 181v33v28q-6 100 -43 181.5t-115 136.5q-68 49 -168 71.5t-203 22.5q-25 0 -39 -6 t-21 -15.5t-10 -18.5t-3 -15v-772z" />
<glyph unicode="E" horiz-adv-x="1992" d="M117 311v1606q0 63 24.5 120.5t66.5 99.5t98 66.5t122 24.5h27h26h1096q63 0 119.5 -24.5t99.5 -66.5t67.5 -99.5t24.5 -120.5q0 -66 -24.5 -122t-67.5 -98t-99.5 -66.5t-119.5 -24.5h-811q-10 0 -14 -5.5t-9 -9.5q-4 -6 -4 -12v-221h404q49 0 92 -18.5t75.5 -51.5 t51 -76t18.5 -92t-18.5 -92t-51 -75.5t-75.5 -51t-92 -18.5h-404v-230q0 -8 4 -16q6 -14 27 -14h807q63 0 119.5 -25t99.5 -67t67.5 -99t24.5 -121q0 -66 -24.5 -122t-67.5 -98t-99.5 -66.5t-119.5 -24.5h-1096q-8 0 -14 1t-12 1t-13.5 -1t-13.5 -1q-66 0 -122 24.5 t-98 66.5t-66.5 98.5t-24.5 121.5z" />
<glyph unicode="F" horiz-adv-x="1855" d="M123 311v1606q0 66 24.5 123t66.5 99t98.5 66.5t121.5 24.5q4 0 6 -1t6 -1q2 0 4.5 1t4.5 1h1132q63 0 119.5 -24.5t99.5 -66.5t67.5 -99.5t24.5 -122.5q0 -66 -24.5 -122t-67.5 -98t-99 -66.5t-120 -24.5h-811q-16 0 -24 -17l-7 -14v-186q0 -4 5.5 -17.5t27.5 -13.5h494 q49 0 92 -18.5t74.5 -50.5t50 -76t18.5 -93t-18.5 -92t-50 -74.5t-74.5 -50t-92 -18.5h-500q-16 0 -21.5 -10.5t-5.5 -14.5v-549q0 -66 -24.5 -122t-66.5 -98t-99 -66.5t-121 -24.5q-66 0 -122 24.5t-98 66.5t-66.5 98.5t-24.5 121.5z" />
<glyph unicode="G" horiz-adv-x="2271" d="M53 1096q10 606 312 872q298 262 793 262h22q508 -2 794 -288l17 -25q12 -12 35.5 -39t46 -66.5t39.5 -87.5q13 -40 13 -83q0 -10 -1 -21q-6 -68 -44 -121t-96.5 -85t-135.5 -37q-10 -1 -21 -1q-67 0 -141 27q-51 18 -87 56t-85.5 76t-129.5 67q-74 26 -199 26h-18 q-25 0 -68.5 -6t-95 -23.5t-104.5 -48t-99 -81t-78 -121t-38 -168.5v-67.5t6 -96.5q14 -96 49 -166t83 -117t102.5 -75.5t105.5 -44t94 -21.5t68 -6q21 -1 41 -1q85 0 151 21q80 25 135.5 63t86 78.5t41.5 67.5h-256q-45 0 -84 17.5t-69 47t-46 69.5t-16 85t16 85t46 70 t69 47t84 17h561q45 0 85 -17t68.5 -47t46 -70t17.5 -85q0 -4 -1 -7t-1 -7h2v-705q0 -63 -22.5 -118.5t-60.5 -97.5t-90 -65.5t-110 -23.5q-63 0 -117.5 28t-93.5 75q-106 -53 -229 -82t-268 -31q-514 6 -818 295q-301 295 -307 801z" />
<glyph unicode="H" horiz-adv-x="2187" d="M117 311v1614q0 63 25.5 120.5t69.5 100.5t102.5 67.5t123.5 24.5q68 0 126.5 -24.5t101.5 -67.5t68.5 -100t25.5 -121v-528h680v528q0 63 24.5 120.5t67.5 100.5t100 67.5t123 24.5t124 -24.5t101 -67.5t69 -100t26 -121v-1614q0 -66 -26 -122t-69 -98t-101 -66.5 t-124 -24.5t-123 24.5t-100 66.5t-67.5 98.5t-24.5 121.5v531h-680v-531q0 -66 -25.5 -122t-68.5 -98t-101.5 -66.5t-126.5 -24.5q-66 0 -124 24.5t-102 66.5t-69.5 98.5t-25.5 121.5z" />
<glyph unicode="I" horiz-adv-x="915" d="M145 311v1606q0 66 25 123t67 99t98 66.5t122 24.5q63 0 120.5 -24.5t99.5 -66.5t66.5 -99.5t24.5 -122.5v-1606q0 -66 -24.5 -122t-66.5 -98t-99.5 -66.5t-120.5 -24.5q-66 0 -122 24.5t-98 66.5t-67 98.5t-25 121.5z" />
<glyph unicode="J" horiz-adv-x="1669" d="M66 307q0 35 4 58q6 45 28 90q33 66 90.5 105.5t128.5 39.5q12 0 23.5 -1t21.5 -3q33 -6 54.5 -10t42 -8.5t41 -7.5t51.5 -5q26 -2 51 -2q61 0 112 11q74 14 126.5 53t81 105.5t28.5 162.5v1032q0 61 23.5 116.5t64.5 96.5t95.5 64.5t117.5 23.5q61 0 116.5 -23.5 t96.5 -64.5t64.5 -96t23.5 -117l4 -801q0 -158 -3 -282.5t-20 -227t-56 -189.5t-109 -169q-113 -131 -302 -194.5t-480 -63.5q-14 0 -48 2t-74 5t-81 8t-70 14q-18 4 -60 17t-75 36q-41 31 -69.5 76t-38.5 100q-4 14 -4 49z" />
<glyph unicode="K" horiz-adv-x="1953" d="M94 313v1612q0 66 24.5 123t66.5 99t99.5 66.5t123.5 24.5q63 0 120.5 -24.5t99.5 -66.5t66.5 -99t24.5 -123v-436l553 610q43 47 99 73q57 26 117 28h10q56 0 110 -18q60 -20 106 -64q46 -42 66 -98q17 -48 17 -99v-15q-3 -58 -25.5 -112.5t-59.5 -95.5l-479 -529 l577 -637q44 -47 64 -106q19 -54 18 -108v-10q-2 -60 -27.5 -116.5t-74.5 -99.5q-50 -44 -108 -64q-51 -18 -102 -17h-16q-60 3 -115.5 29t-98.5 73l-631 690v-490q0 -66 -24.5 -122t-66.5 -98t-99.5 -66.5t-120.5 -24.5q-66 0 -123.5 24.5t-99.5 66.5t-66.5 98.5 t-24.5 121.5z" />
<glyph unicode="L" horiz-adv-x="1847" d="M145 313v1606q0 63 25 120.5t67 99.5t98 66.5t122 24.5q63 0 120.5 -24.5t99.5 -66.5t66.5 -99.5t24.5 -120.5v-1294h700q63 0 121 -25t100 -66.5t66.5 -99t24.5 -121.5q0 -66 -24.5 -123t-66.5 -99t-99.5 -66.5t-121.5 -24.5h-958q-8 0 -14.5 1t-12.5 1t-13 -1t-13 -1 q-66 0 -122 24.5t-98 66.5t-67 99.5t-25 122.5z" />
<glyph unicode="M" horiz-adv-x="2430" d="M137 309v1592q0 57 23 112q10 33 27.5 63.5t45.5 57.5q45 45 101.5 67.5t116 22.5t116 -21.5t103.5 -66.5l544 -547l547 547q45 44 101 66q54 21 110 21h6q58 -1 115.5 -23.5t104.5 -65.5q47 -45 76.5 -103.5t29.5 -129.5v-1592q0 -63 -24.5 -119.5t-65.5 -98.5 t-98.5 -66.5t-120.5 -24.5t-119.5 24.5t-98.5 66.5t-66.5 98.5t-24.5 119.5v879l-250 -252q-33 -35 -72 -54.5t-80 -29.5q-33 -7 -67 -7q-43 -1 -85 11q-76 20 -135 80l-241 240v-867q0 -63 -24.5 -119.5t-66.5 -98.5t-98.5 -66.5t-120.5 -24.5q-63 0 -119.5 24.5 t-98.5 66.5t-66.5 98.5t-24.5 119.5z" />
<glyph unicode="N" horiz-adv-x="2181" d="M123 311v1606q0 59 21.5 111.5t58.5 94.5t87 68.5t107 32.5q31 7 63 7q64 1 132 -27q100 -40 170 -136l684 -907v756q0 63 24.5 120.5t67.5 98.5t99 65.5t122 24.5q63 0 119.5 -24.5t98.5 -65.5t66.5 -98.5t24.5 -120.5v-1606q0 -66 -24.5 -122t-66.5 -98t-98 -66.5 t-120 -24.5q-8 0 -16 1t-14 1h-8q-80 0 -159 40q-83 42 -145 124l-672 893v-748q0 -66 -24.5 -122t-67.5 -98t-100 -66.5t-121 -24.5q-63 0 -119.5 24.5t-98.5 66.5t-66.5 98.5t-24.5 121.5z" />
<glyph unicode="O" horiz-adv-x="2236" d="M16 1094q10 604 312 870q296 262 791 262h22q509 -4 792 -289q285 -291 287 -845q-10 -504 -295 -793q-287 -293 -788 -299q-512 6 -813 295t-308 799zM672 1106q4 -207 125 -326q122 -118 326 -118h3q205 3 320 120q119 119 119 322q0 227 -117 344q-115 117 -322 117 h-7q-200 0 -322 -107q-121 -106 -125 -352z" />
<glyph unicode="P" horiz-adv-x="1835" d="M133 309v1612q0 63 24.5 120.5t66.5 98.5t98.5 65.5t119.5 24.5h570q92 0 167.5 -11t141 -35.5t125.5 -62.5t121 -91q53 -49 95 -105.5t70.5 -130.5t43 -170t14.5 -223q0 -186 -56.5 -329.5t-166.5 -250.5q-109 -104 -248 -151t-326 -47h-241v-314q0 -63 -25 -119.5 t-65.5 -98.5t-98 -66.5t-121.5 -24.5q-63 0 -119.5 24.5t-98.5 66.5t-66.5 98.5t-24.5 119.5zM725 1202q0 -6 7 -18.5t38 -12.5q39 0 84 -1h44h43q42 1 80 7.5t64 18.5q66 29 88.5 83t28.5 114v37q-4 59 -27.5 114t-89.5 84q-27 12 -64.5 18.5t-79.5 7.5t-87 1h-84 q-31 0 -38 -13.5t-7 -19.5v-420z" />
<glyph unicode="Q" horiz-adv-x="2461" d="M129 1106q6 604 311 879q298 262 798 262h22q520 -4 798 -291q287 -293 293 -852q-4 -215 -57 -388t-158 -315l109 -102q2 -4 8 -10q47 -47 70.5 -105.5t25.5 -119.5v-9q0 -56 -21 -109q-22 -57 -67 -102q-10 -10 -19.5 -18t-19.5 -14q-10 -8 -20 -15q-75 -44 -160 -44 q-11 0 -22 1q-97 6 -175 70q-12 6 -18 16q-4 2 -6 4t-6 4l-201 201q-168 -45 -357 -47q-510 6 -819 299q-303 291 -309 805zM803 1120q2 -205 121 -319q122 -117 321 -119q203 6 316 119q115 121 114 317q0 223 -110 334q-119 115 -318 115q-205 0 -321 -105 q-119 -102 -123 -342z" />
<glyph unicode="R" horiz-adv-x="1943" d="M119 303v1624q0 63 24.5 120.5t67.5 99.5t99.5 66.5t119.5 24.5h576q94 0 169.5 -11t142 -35.5t126 -62.5t121.5 -93q55 -49 97 -105.5t70.5 -131.5t43 -171t14.5 -225q0 -371 -223 -584l-13 -12l232 -328q37 -53 50 -113q8 -35 8 -70q0 -24 -4 -48q-9 -60 -42 -113 t-84 -90q-54 -37 -114 -50q-34 -7 -68 -7q-26 0 -52 4q-60 10 -112.5 42t-91.5 85l-354 502h-177v-318q0 -66 -24.5 -122t-67.5 -99t-100 -67.5t-123 -24.5q-63 0 -119.5 24.5t-99.5 67.5t-67.5 99.5t-24.5 121.5zM717 1202q0 -6 8 -19.5t37 -13.5h84t88 1t81 7.5t64 18.5 q66 29 89.5 84t29.5 115v37q-6 61 -29.5 116.5t-89.5 83.5q-27 12 -64.5 18.5t-80.5 7.5h-44h-44q-45 -1 -84 -1q-29 0 -37 -12.5t-8 -20.5v-422z" />
<glyph unicode="S" horiz-adv-x="1945" d="M74 444q-2 16 -3 34q0 59 29 126q25 61 63 94t75.5 46.5t72.5 13.5t54 -4q53 -10 110 -36t119.5 -55.5t131.5 -56t142 -37.5q95 -14 158 -14q18 0 32 1q70 5 106 23.5t45.5 46t7.5 56.5q-2 27 -19.5 44t-48.5 31.5t-74 29t-98 32.5q-174 57 -290 100.5t-192.5 78 t-123.5 66.5t-86 66q-78 70 -118 168q-36 90 -36 203v23q0 143 62.5 271t178 224.5t280.5 153.5t372 57q106 -2 241.5 -24.5t262.5 -75.5q61 -27 119.5 -62.5t105.5 -83t77 -106.5t32 -133q0 -68 -21.5 -113t-62.5 -92q-43 -41 -114 -50q-18 -2 -37 -2q-55 0 -118 19 q-39 10 -69.5 23.5t-58 29t-56.5 31t-61 29.5q-98 46 -186 62q-54 9 -102 10q-31 0 -58 -4q-43 -4 -72 -17.5t-44.5 -33t-21.5 -43t-6 -46.5q-2 -29 14.5 -49t45.5 -37q18 -12 77.5 -31.5t139 -45t174 -58.5t182.5 -68.5t162 -74.5t117 -80q82 -72 129 -163q45 -87 45 -215 v-11v-10q0 -165 -64 -297q-66 -136 -194 -224q-248 -180 -607 -184q-162 2 -321.5 27.5t-290.5 87.5q-78 37 -145.5 85t-110.5 109t-53 135z" />
<glyph unicode="T" horiz-adv-x="1929" d="M-14 1923q0 63 24.5 120.5t67.5 100.5t99 67.5t122 24.5h1346q63 0 120.5 -24.5t100.5 -67.5t67.5 -100t24.5 -121q0 -66 -24.5 -123t-67.5 -99t-100.5 -66.5t-120.5 -24.5h-359v-1297q0 -66 -24.5 -122t-67.5 -99t-100.5 -67.5t-122.5 -24.5q-66 0 -122 24.5t-99 67.5 t-68 99.5t-25 121.5v1297h-358q-66 0 -122 24.5t-99 66.5t-67.5 99.5t-24.5 122.5z" />
<glyph unicode="U" horiz-adv-x="2242" d="M129 1026v813q0 88 24.5 162t71.5 127t117 83t162 30q113 0 180.5 -45.5t102 -110t45 -134t10.5 -118.5v-924q0 -72 27.5 -119t67.5 -73.5t86 -37.5t85 -11t85 11t86 37.5t66.5 74t26.5 118.5l2 924q0 49 10.5 118.5t45 134t101 110t181.5 45.5q92 0 163 -30t118 -83 t71.5 -127t24.5 -162v-813q-2 -121 -13.5 -227.5t-38 -200.5t-71.5 -175t-117 -149q-274 -262 -737 -274v-2q-2 0 -2 1t-2 1l-2 -2v2q-461 12 -739 274q-72 68 -117 149t-71.5 175t-37 200.5t-12.5 227.5z" />
<glyph unicode="V" horiz-adv-x="1953" d="M6 1819q-14 49 -14 97q0 49 15 97q30 94 108 152q10 4 20 12q16 10 47 25q56 24 114 24h7q62 -2 118 -24.5t102 -66.5t73 -105q2 -4 2 -8.5t2 -8.5l381 -899l340 805v-2l43 96q2 4 6 17q27 61 72 105t101 67q57 22 119 23h4q60 0 118 -23q16 -6 30.5 -14.5t28.5 -18.5 l8 -4q76 -57 106 -151q15 -48 15 -98q0 -48 -14 -97h2q-2 -6 -4 -11.5t-6 -11.5q0 -4 -1 -7t-1 -7h-2l-48 -115h-2l-612 -1452q-2 -4 -3 -8t-3 -8q-35 -80 -100.5 -130.5t-143.5 -62.5q-2 -2 -6 -2h-4h-2q-19 -2 -38 -2q-32 0 -64 6q-50 10 -95 36t-80.5 64.5t-56.5 90.5 q-2 4 -2 8t-2 8l-43 94l-623 1473q-2 4 -2 7t-2 7q-6 10 -8 23z" />
<glyph unicode="W" horiz-adv-x="2404" d="M117 330v1591q0 63 24.5 119.5t66.5 98.5t98 66.5t120 24.5q63 0 119.5 -24.5t98.5 -66.5t66.5 -98t24.5 -120v-879l252 250q33 35 72 55.5t78 30.5q35 7 69 7q44 0 86 -11q76 -20 131 -80l244 -241v868q0 63 24.5 119.5t66.5 98.5t98.5 66.5t119.5 24.5t119.5 -24.5 t98.5 -66.5t67 -98t25 -120v-1591q0 -57 -21 -115q-12 -33 -29.5 -63.5t-46.5 -57.5q-45 -45 -102 -67.5t-115.5 -22.5t-116 22.5t-102.5 67.5l-547 547l-549 -547q-45 -45 -101 -67.5t-114.5 -22.5t-115 22.5t-101.5 67.5q-51 41 -79.5 102.5t-28.5 133.5z" />
<glyph unicode="X" horiz-adv-x="2203" d="M80 316q2 98 59 182q10 10 17 18l6 6q2 2 2 4l522 586l-522 586q-4 8 -8 10q-12 14 -17 18q-57 84 -59 182v8q0 94 51 171q6 10 14 18q6 8 15.5 17.5l19.5 19.5q48 42 106 62q51 17 102 17h16q60 -3 117 -29.5t102 -75.5q4 -4 5 -6.5t5 -6.5l469 -526l467 526q4 4 5 6 t5 7q45 49 103 76q56 26 116 29h16q51 -1 102 -17q58 -20 105 -62q10 -10 19.5 -19t17.5 -18q8 -8 15 -18q50 -76 50 -168v-11q-3 -98 -63 -182q-4 -4 -7 -8t-7 -10q-6 -6 -8 -10h-2l-520 -586l520 -586h2l4 -4q6 -6 4 -6q4 -6 7 -10t7 -8q29 -41 44.5 -88.5t17.5 -94.5v-13 q0 -40 -10 -79q-12 -45 -39 -84l-7 -8q-10 -12 -21 -24.5t-24 -24.5q-47 -42 -105 -62q-48 -16 -97 -17q-11 0 -21 1q-60 4 -117 29.5t-102 75.5q-4 4 -5 6t-5 6l-467 526l-469 -526q-4 -4 -5 -6t-5 -6q-45 -49 -103 -75q-56 -26 -116 -30q-10 -1 -21 -1q-49 1 -97 17 q-58 20 -106 62q-25 23 -45 49l-4 8q-51 75 -51 169v8z" />
<glyph unicode="Y" horiz-adv-x="1824" d="M6 1936q4 100 64 178l16 16q8 8 17.5 16t19.5 19q51 39 111 55q41 11 81 11q20 0 39 -3q60 -8 115 -38.5t96 -82.5q2 -2 10 -14l340 -604l351 604q4 8 8 12q41 51 97 82t115 39q21 3 42 3q39 0 78 -10q61 -15 112 -54q10 -10 19.5 -18.5t17.5 -16.5q8 -9 14 -19 q59 -76 65 -175v-19q0 -88 -48 -166q-4 -6 -7 -11t-7 -11q-4 -2 -4.5 -4.5t-4.5 -6.5v-2l-549 -823q2 -10 2.5 -17.5t0.5 -17.5v-18v-391v-127q0 -8 -3 -15v-24h-2q-10 -102 -74.5 -177t-158.5 -98h-8q-16 -4 -32.5 -6t-33.5 -2q-66 0 -123 25.5t-99 68.5t-66.5 101.5 t-24.5 126.5q0 4 1 8t1 8v104l-2 414v2q0 4 1 6t1 6q0 16 2 27q0 2 1 4t1 6l-522 811l-6 13q-8 8 -15 20q-49 80 -49 172v13z" />
<glyph unicode="Z" horiz-adv-x="2119" d="M47 1925q0 66 24.5 123t66.5 99t99.5 66.5t122.5 24.5h1338q63 0 120.5 -24.5t100.5 -66.5t67.5 -99t24.5 -123q0 -55 -18.5 -103t-48.5 -89q0 -2 -39 -49.5t-100.5 -124t-140.5 -174t-161 -197.5l-438 -541q-2 -4 -2 -6q-2 -6 0 -8q0 -8 16 -8h645q63 0 121 -25 t101 -66.5t67.5 -99t24.5 -121.5q0 -66 -24.5 -123t-67.5 -99t-100.5 -66.5t-121.5 -24.5h-606h-733q-66 0 -122 24.5t-98 66.5t-66.5 99.5t-24.5 122.5q0 109 67 195q4 8 9 14l868 1069q4 4 6 11q4 12 -10 12h-8h-646q-66 0 -123 24.5t-99 67.5t-66.5 99.5t-24.5 119.5z " />
<glyph unicode="\" horiz-adv-x="1492" d="M23 2040q2 18 4 50t30 85q14 29 41 59.5t66 53.5q37 23 77 32t70 9q41 0 69 -9.5t48 -19.5q41 -16 56.5 -30.5t25.5 -24.5q18 -16 24.5 -25.5t10.5 -13.5q10 -12 12 -17.5t4 -9.5q16 -27 27 -55q29 -55 80 -162t114.5 -244t136 -295.5t144.5 -316.5q72 -160 138.5 -304.5 t119.5 -256.5q61 -131 115 -246q25 -53 25.5 -110.5t-19 -108.5t-58.5 -92t-94 -66q-55 -29 -119 -28q-82 0 -153.5 44t-108.5 125q-63 137 -133 291q-59 131 -135 297t-156 340q-82 174 -158.5 341t-138.5 296q-29 66 -54 119t-42 90q-10 16 -15 28.5t-9 20.5 q-45 66 -45 154z" />
<glyph unicode="a" horiz-adv-x="1669" d="M43 731q6 412 211 592q57 51 114.5 85t120 55.5t135 29.5t158.5 8q43 0 89.5 -8t91.5 -25.5t81.5 -43t61.5 -60.5q20 98 88 134t162 36q49 0 93 -12.5t79 -36t56.5 -59t21.5 -80.5v-463v-658q0 -121 -66.5 -173t-193.5 -52q-47 0 -102.5 25.5t-92.5 93.5 q-14 -12 -43 -31.5t-78 -39t-122.5 -34t-178.5 -14.5q-86 0 -159.5 19.5t-135 48t-107.5 60.5t-73 58q-205 199 -211 545zM573 739q2 -98 62 -157q59 -59 162 -60q98 1 157 60q57 59 60 157q-4 115 -58 168q-55 57 -159 58h-7q-93 0 -155 -52q-59 -53 -62 -174z" />
<glyph unicode="b" d="M82 719v995q0 59 21.5 112.5t60.5 93.5t89 62.5t109 22.5q16 0 34 -2t34 -6q86 -23 144.5 -89.5t68.5 -158.5q0 -2 1 -8t1 -33v-80v-147q121 51 254 51q164 -2 295 -65.5t223 -168t142.5 -238.5t50.5 -278q0 -147 -44 -287.5t-132 -249t-219.5 -176t-305.5 -69.5l-65 -2 l-66 2q-164 2 -290 62.5t-214 160t-136 228.5t-56 268zM625 758q4 -106 63 -164q63 -59 164 -59t160 61q59 59 59 162q0 109 -57 170q-59 59 -162 59h-7q-95 0 -157 -53q-59 -51 -63 -176z" />
<glyph unicode="c" horiz-adv-x="1568" d="M88 758v8v10q8 397 211 578q206 178 537 178h22q174 0 303 -56.5t228 -154.5q8 -8 22 -28.5t28.5 -48t26 -60.5t11.5 -66q0 -76 -26 -133t-69 -86q-39 -29 -77.5 -40t-73.5 -13h-17q-24 0 -48 4q-30 6 -54 12q-39 10 -69.5 38t-36.5 34q-53 55 -160 59q-104 0 -164 -53 q-59 -53 -59 -174q0 -119 59 -174q59 -51 164 -51q104 0 160 57q6 8 36.5 34.5t69.5 39.5q24 6 54 12q23 4 48 4h17q35 -2 73.5 -13t77.5 -38q43 -31 69 -88t26 -133q0 -35 -11.5 -68t-26 -60.5t-28.5 -47t-22 -27.5q-98 -98 -227.5 -154.5t-303.5 -56.5h-22 q-335 0 -537 178q-203 180 -211 578z" />
<glyph unicode="d" d="M82 782q0 143 50 277.5t142.5 239t223.5 168t295 65.5q133 0 254 -51v233v12q0 14 2 23q10 92 68.5 158.5t144.5 89.5q16 4 33.5 6t33.5 2q57 0 108.5 -22.5t90.5 -62.5t60.5 -93t21.5 -113v-14v-981q-8 -139 -56.5 -268t-136.5 -228.5t-214 -160t-290 -62.5l-65 -2 l-66 2q-174 2 -305 69.5t-219 176t-132 249t-44 287.5zM621 758q0 -103 59 -162q57 -61 160 -61q100 0 164 59q59 57 63 164q-4 125 -63 176q-61 53 -157 53h-7q-102 0 -162 -59q-57 -61 -57 -170z" />
<glyph unicode="e" horiz-adv-x="1613" d="M74 752q2 78 8 146.5t18 129.5q23 98 62 178t110 146q37 31 88.5 63.5t121.5 58.5q71 26 163 42q82 15 184 14h25q119 -2 212 -28.5t163.5 -65.5t118.5 -84t75 -82q98 -147 111 -404q2 -41 2 -86t-4 -92q-2 -20 -5 -57t-14 -56q-18 -27 -59 -44t-117 -17h-106.5h-134 t-143 1t-135 1h-108.5h-63q-23 -31 6 -53q12 -10 37 -19.5t67 -17.5t105.5 -12t153.5 -4q25 2 51 -2q23 -4 51.5 -11.5t61.5 -21.5q47 -25 75.5 -71t28.5 -101q0 -82 -57.5 -135.5t-143.5 -61.5q-35 -4 -62.5 -5t-74.5 -1h-86q-25 -1 -49 -1q-111 -1 -187 15q-92 18 -157 49 q-68 33 -123 75t-78 65q-104 100 -146 236t-46 313zM626 962q-4 -13 -4 -23q0 -13 6 -23q10 -20 50 -19h336q25 -1 32 15q5 11 5 25q0 7 -1 13q-3 22 -11.5 42t-14.5 30q-29 41 -81 60.5t-101 19.5q-100 0 -164 -53q-10 -10 -27 -35.5t-25 -51.5z" />
<glyph unicode="f" horiz-adv-x="1380" d="M27 907q0 92 59 162t143 90v6h-26h26v187q0 137 52.5 258t142.5 210t211 141t258 52h4h143q61 -2 115.5 -26.5t94.5 -65.5t62.5 -95t22.5 -116q-2 -61 -26.5 -115.5t-65.5 -94.5t-96 -62.5t-117 -22.5h-139q-25 0 -43.5 -17.5t-18.5 -45.5v-187h156h2h10q12 0 21 -2 q84 -10 145.5 -62t83.5 -132q0 -10 2 -21q0 -10 1 -20t1 -21q0 -55 -20.5 -102t-56 -82t-84 -55.5t-103.5 -20.5q-4 0 -7 1t-5 1h-146v-1024q0 -61 -23.5 -115.5t-64.5 -94.5t-95 -63.5t-118 -23.5q-61 0 -115.5 23.5t-95.5 63.5t-64.5 94.5t-23.5 115.5v1024h-22h22v6 q-72 18 -125 68.5t-69 122.5v8q-8 23 -8 53z" />
<glyph unicode="g" horiz-adv-x="1794" d="M53 780q0 182 50.5 323.5t141.5 239t216 147.5t272 50h76h70q127 0 233 -41q23 -6 54.5 -21.5t50.5 -25.5q39 43 92 65.5t112 22.5q55 0 103.5 -20.5t86.5 -55t64.5 -84t38.5 -104.5q0 -10 1 -23.5t1 -23.5v-27l2 -825v-23q0 -222 -37 -406q-39 -192 -143 -328 t-289.5 -211t-476.5 -75q-14 0 -47 2t-72 5.5t-78.5 8.5t-66.5 11q-23 4 -62.5 15.5t-70.5 33.5q-88 59 -109 164q-2 12 -3 44t3 52q6 23 12.5 44.5t16.5 39.5q31 59 89 97t126 38h21.5t21.5 -2q8 -4 27.5 -9t45 -10t53.5 -9t52 -4q20 -1 38 -1q66 0 123 11q73 14 125 51 t81.5 97.5t29.5 150.5q-49 -45 -97 -75t-99 -48t-108.5 -26.5t-125.5 -8.5q-133 0 -249.5 49t-204.5 146.5t-139.5 242t-51.5 336.5zM610 735q0 -123 72.5 -184.5t189.5 -61.5t183.5 62.5t66.5 183.5q0 109 -67.5 176.5t-184.5 67.5q-117 -2 -188.5 -68.5t-71.5 -175.5z" />
<glyph unicode="h" d="M78 303q0 352 2 704.5t2 723.5q2 59 19.5 111t52 90t88 60.5t125.5 22.5q61 0 109 -23.5t81 -63.5t50.5 -93t17.5 -113v-2l-2 -237q61 27 141 40t147 13q137 -2 253 -47t205 -121t148.5 -177t86.5 -218q4 -27 8 -63t6 -70q2 -39 2 -82v-463v-15q0 -57 -14 -106 q-16 -55 -46 -97t-74 -67.5t-100 -27.5h-2h-2q-4 0 -5 -1t-3 -1h-24q-2 0 -40 1t-85 22.5t-89 72.5t-53 151q-2 16 -3 45t-1 64l2 471q0 16 -7 45t-29.5 58.5t-65.5 51t-115 23.5h-13q-87 1 -133 -25q-50 -28 -71 -61q-25 -39 -26 -90v-283.5v-151.5v-62.5v-14.5v-15 q1 -57 -13 -107q-16 -56 -47 -98t-76 -67.5t-100 -27.5h-4h-8h-2l-21 -2h-9q-72 0 -128 30q-51 29 -93 95.5t-42 197.5z" />
<glyph unicode="i" horiz-adv-x="788" d="M102 1898q0 61 22.5 115.5t62.5 94.5t92.5 63.5t113.5 23.5q59 0 112.5 -23.5t93.5 -63.5t62.5 -94.5t22.5 -115.5t-22.5 -114t-62.5 -93t-93 -63.5t-113 -23.5q-61 0 -113.5 23.5t-92.5 63.5t-62.5 93t-22.5 114zM111 279v985q0 59 22.5 111t60 90t90 60.5t111.5 22.5 q57 0 109.5 -22.5t90.5 -60.5t60.5 -90t22.5 -111v-985q0 -59 -22.5 -110.5t-60.5 -89.5t-90 -60.5t-110 -22.5q-59 0 -111.5 22.5t-90 60.5t-60 89t-22.5 111z" />
<glyph unicode="j" horiz-adv-x="847" d="M-429 -375v12q0 23 3 37q4 23 10 49.5t17 45.5q33 59 87 95t122 36q10 0 20 -1t20 -3q27 -4 53.5 -13.5t82.5 -9.5q55 0 87.5 17.5t49 52t20.5 87t4 122.5v1132q0 23 15.5 78t62.5 106q27 29 72 54h2q37 20 100 26q8 0 15.5 1t15.5 1q53 0 100.5 -19.5t85 -54t62 -80.5 t35.5 -102q2 -10 3 -22t1 -23v-24v-580v-221.5t-1 -202.5t-2 -156.5t-3 -84.5q-8 -102 -22.5 -185.5t-67.5 -169.5q-43 -78 -124 -136t-169 -91q-35 -12 -72 -22.5t-81 -17.5t-96 -9q-17 -1 -36 -1q-39 0 -84 3q-27 0 -69 5t-95 17q-20 4 -58 21.5t-71 40.5 q-37 29 -58.5 62.5t-31.5 84.5q-4 12 -5 43zM133 1898q0 61 22.5 115.5t62.5 94.5t92 63.5t114 23.5q59 0 112.5 -23.5t93.5 -63.5t62.5 -94.5t22.5 -115.5t-22.5 -114t-62.5 -93t-93.5 -63.5t-112.5 -23.5q-61 0 -113.5 23.5t-92.5 63.5t-62.5 93t-22.5 114z" />
<glyph unicode="k" horiz-adv-x="1593" d="M86 1575v31q2 61 18.5 116.5t48 97.5t79 65.5t112.5 23.5v2h2h2v-2q68 0 117 -23.5t81 -65.5t46 -97.5t14 -116.5v-31l-2 -432l338 311q0 2 2 2q2 2 4 3t4 3q6 8 17 13q69 51 153 58q13 1 25 1q70 0 131 -33l16 -12q8 -4 16.5 -11.5t16.5 -13.5q39 -37 57 -82 q17 -41 17 -84v-9q-2 -48 -22.5 -94t-61.5 -83q-6 -6 -10 -8l-291 -260l452 -479q2 -2 4.5 -5.5t4.5 -5.5q27 -47 33 -97q2 -15 2 -30q0 -34 -10 -66q-14 -46 -45.5 -84t-80.5 -63q-10 -6 -19 -9t-20 -7q-10 -4 -20 -6q-30 -7 -61 -7q-48 -1 -97 17q-80 28 -131 94 q-2 4 -5 8.5t-5 8.5q-6 6 -8 10l-408 477v-324v-14q0 -55 -19.5 -104t-54 -86t-81 -60.5t-99.5 -25.5h-2h-2q-53 2 -99 25.5t-81 60.5t-54.5 86t-19.5 104v14v721v29z" />
<glyph unicode="l" horiz-adv-x="765" d="M104 289v14v96v1319q0 4 1 7.5t1 7.5v20v2q10 90 68.5 157.5t144.5 86.5q10 2 21 4q10 2 22.5 3t24.5 1q57 0 108.5 -22.5t89.5 -61.5t60.5 -92t22.5 -113v-12v-1303v-114v-13q-2 -6 -2 -12t-2 -10q-10 -92 -67.5 -158.5t-143.5 -87.5h-11q-12 -4 -27.5 -6t-29.5 -2 q-59 0 -109.5 22.5t-89.5 61.5t-60.5 92t-21.5 113z" />
<glyph unicode="m" horiz-adv-x="2322" d="M100 295v833q0 88 25 163t76 129.5t130 85t183 30.5l58 1q59 1 156 1h225h266.5t277.5 -1t262 -1h47q102 0 179 -28.5t129.5 -79t79 -121t30.5 -154.5v-831q2 -6 2 -13.5v-13.5q0 -61 -23.5 -115.5t-64.5 -94.5t-96 -62.5t-119 -22.5q-61 0 -114.5 22.5t-94.5 61.5 q-92 80 -96 213v596q0 70 -23 106q-16 18 -36.5 29.5t-45.5 11.5q-43 0 -72.5 -28.5t-29.5 -69.5l2 -729q0 -94 -68.5 -151.5t-181.5 -57.5t-179 60.5t-69 148.5v731q-4 41 -33.5 67.5t-70.5 28.5q-31 -4 -51 -14q-29 -23 -41 -58.5t-12 -76.5v-594q0 -4 -1 -7t-1 -7v-16.5 t-5 -16.5v-12q-4 -10 -6 -19.5t-6 -19.5q-2 -4 -3 -8.5t-3 -8.5q-2 -6 -4 -11t-6 -11q-16 -37 -51 -68l-27 -26q-41 -31 -89 -48.5t-102 -17.5q-35 0 -65 6q-51 10 -94 37t-75 65.5t-50.5 86t-18.5 100.5z" />
<glyph unicode="n" horiz-adv-x="1554" d="M63 291v8v31.5t1.5 78t1.5 147.5t1 240.5t1 356.5q2 84 28.5 154.5t77.5 122t128 80t179 28.5h51h496h49q100 0 177 -28.5t129.5 -80t79 -122t30.5 -154.5v-356.5v-240.5t1 -147.5t1 -78v-31.5v-8q0 -61 -23.5 -115.5t-64.5 -94.5t-96.5 -62.5t-118.5 -22.5 q-59 0 -114.5 21.5t-96.5 62.5q-43 39 -67.5 94t-26.5 121l-2 596q1 9 1 17q0 56 -24 91q-31 41 -84 41q-51 0 -82 -41q-14 -23 -18 -49t-4 -59l-2 -596q0 -66 -24.5 -121t-69.5 -94q-41 -41 -95.5 -62.5t-113.5 -21.5q-63 0 -118.5 22.5t-97.5 62.5t-66 94t-24 116z" />
<glyph unicode="o" horiz-adv-x="1613" d="M39 754q6 422 215 606q206 182 545 182h22q356 0 551 -203q199 -201 201 -587q-2 -346 -205 -551q-197 -201 -549 -207q-356 4 -567 205q-207 201 -213 555zM582 764q0 -102 63 -162q29 -31 71 -45t93 -16q107 4 162 61q55 59 59 162q-4 115 -57 172q-31 29 -71 44 t-93 15q-100 0 -164 -53q-63 -57 -63 -178z" />
<glyph unicode="p" d="M80 817q8 141 57 271.5t137 229.5t215 160.5t293 63.5l66 2l65 -2q174 -2 306.5 -69.5t220.5 -177t132 -249.5t44 -290q0 -145 -50 -279.5t-142.5 -239t-224.5 -169t-298 -66.5q-131 0 -256 51v-272v-2v-12q0 -16 -2 -23q-10 -92 -68.5 -159.5t-144.5 -90.5h-8 q-14 -2 -28.5 -4t-31.5 -2q-59 0 -109 22.5t-89 62.5t-60.5 93t-21.5 113v14zM627 782q4 -127 63 -178q61 -53 159 -53h7q104 0 160 57q57 57 57 174q0 102 -57 162q-59 59 -162 60q-104 0 -164 -58q-61 -61 -63 -164z" />
<glyph unicode="q" horiz-adv-x="1734" d="M82 756q6 420 215 600q199 180 539 180h22q352 0 547 -201q174 -172 197 -506q2 -16 2 -35.5v-39.5q0 -27 -1 -52.5t-4 -50.5q0 -10 -4 -22q-4 -23 -7 -43.5t-7 -38.5q-2 -4 -2 -15q-12 -49 -28.5 -92t-39.5 -86l115 -114q33 -35 43 -83q6 -28 6 -58q0 -20 -3 -41 q-7 -52 -30.5 -101t-56.5 -82q-35 -35 -82 -54.5t-96 -22.5q-9 -1 -19 -1q-39 0 -75 11q-45 12 -76 40l-174 175q-20 -4 -39.5 -7.5t-40.5 -7.5q-8 -2 -13 -2t-14 -2q-10 -2 -30 -2q-16 -2 -35 -2h-35q-356 0 -561 203q-10 10 -19.5 20t-19.5 21q-172 197 -174 512zM621 764 q0 -104 61 -162q63 -57 164 -57q102 0 162 59q29 29 44 70t15 90q0 109 -57 170q-31 29 -70 44t-92 15q-105 0 -166 -53q-29 -29 -45 -71t-16 -105z" />
<glyph unicode="r" horiz-adv-x="1253" d="M86 227l2 1043q0 55 21.5 104t58.5 86t87 58.5t105 21.5h574q51 0 104.5 -10t98.5 -35t73.5 -68t30.5 -108v-13q-1 -82 -25 -138q-26 -60 -71 -94t-100.5 -47t-106.5 -13q-88 0 -146 2h-22q-44 0 -72 -6q-34 -8 -48.5 -35t-14.5 -82v-666q0 -47 -27.5 -88t-68.5 -71.5 t-92.5 -49t-98.5 -18.5t-94 20.5t-84 52t-60.5 72.5t-23.5 82z" />
<glyph unicode="s" horiz-adv-x="1642" d="M104 313q-1 10 -1 21q-1 46 15 88q18 50 52.5 87.5t80.5 58t97 20.5q57 0 118.5 -16.5t117 -39t98.5 -44t66 -29.5q39 -16 77.5 -25.5t68.5 -9.5t46 9t8 32q-4 12 -50 29.5t-106.5 36t-122 37t-98.5 30.5q-98 33 -177 71t-138 89q-59 50 -90 124q-29 70 -29 156v11 q0 100 43 194t131 165t222.5 114t314.5 43q84 -2 188.5 -17.5t202.5 -54.5q47 -18 91 -43t79 -57.5t56.5 -74.5t21.5 -95q0 -49 -21.5 -100.5t-58.5 -80.5q-35 -29 -83 -48t-101 -19q-49 2 -99.5 18.5t-99.5 42.5q-10 6 -33.5 17.5t-51.5 22.5t-57.5 21.5t-54.5 12.5 q-18 2 -33 2q-26 0 -42 -6q-26 -10 -21 -31q2 -12 27.5 -22.5t67.5 -22.5t95.5 -26.5t112.5 -36.5q55 -20 108.5 -45t101.5 -50.5t85 -48.5t57 -41q63 -53 103.5 -126.5t40.5 -170.5q0 -123 -53.5 -221t-151.5 -164t-230 -95.5t-270 -29.5q-129 0 -254 19.5t-229 58.5 q-102 37 -167.5 101.5t-70.5 158.5z" />
<glyph unicode="t" horiz-adv-x="1118" d="M74 279v1450q0 57 21.5 107t59.5 88t88 59.5t107 21.5t108.5 -21.5t89.5 -59.5t59.5 -88t21.5 -107v-199h270q4 0 5 -1t5 -1q12 0 21 -2q78 -10 135.5 -59t77.5 -121q0 -10 2 -19q0 -8 1 -18.5t1 -20.5q0 -49 -19.5 -93t-53.5 -77t-79 -51t-96 -18h-12h-258v-19v-751 q0 -59 -21.5 -109.5t-59.5 -88.5t-89 -59.5t-109 -21.5q-57 0 -107 21.5t-88 59.5t-59.5 88t-21.5 110z" />
<glyph unicode="u" horiz-adv-x="1521" d="M57 1204v43q0 61 23.5 114.5t63.5 93.5t95.5 62.5t116.5 22.5t114.5 -21.5t94.5 -60.5q45 -39 69.5 -94t24.5 -121l3 -588q0 -33 4 -54t18 -44q25 -33 78 -33t78 33q25 39 24 98v588q4 137 94 215q41 39 94.5 60.5t114.5 21.5t116.5 -22.5t95.5 -62.5t63.5 -93t23.5 -115 v-43t-1 -101.5t-1 -130t-1 -130t-1 -102.5v-44q-2 -164 -52 -289t-146 -217q-94 -90 -221.5 -139t-280.5 -49q-158 0 -283 49t-219 139q-98 92 -147.5 217t-51.5 289v44t-1 102.5t-1 130t-1 130t-1 101.5z" />
<glyph unicode="v" horiz-adv-x="1507" d="M8 1268q2 49 22.5 96t54.5 86t79 59q43 21 97 25q14 1 28 1q39 1 79 -9q52 -12 94 -41t64 -74l234 -500l231 500q23 45 66 73q43 30 94 42q38 9 77 9q14 1 28 -1q54 -4 98 -25q45 -20 78.5 -59t54 -86t23.5 -96v-14q0 -41 -15 -74l-491 -1059q-30 -63 -100 -94 q-65 -29 -135 -29h-9h-9q-71 0 -137 28q-70 30 -100 95l-489 1059q-17 36 -17 81v7z" />
<glyph unicode="w" horiz-adv-x="2283" d="M76 1245q0 61 23.5 114.5t65.5 93.5t97 63.5t117 23.5q61 0 115.5 -21.5t95.5 -60.5q94 -82 94 -215l2 -598v-9q0 -55 23 -97q29 -39 82 -39q43 0 72.5 27.5t29.5 68.5v733q0 92 68.5 149.5t179.5 59.5q115 0 181.5 -61.5t70.5 -147.5v-735q4 -39 32.5 -66.5t71.5 -27.5 q27 0 49 12q29 23 41 58.5t15 76.5l-3 596q0 4 1.5 7t1.5 7q2 10 2 17.5t2 15.5q0 8 2 13q2 10 4 19t6 19q2 4 3 8.5t3 8.5q6 10 10 20q20 37 52 72q8 6 14 12t12 11q2 0 2 2q41 31 88 48t103 17q35 0 65 -6q102 -23 170 -102.5t68 -186.5l2 -835q0 -88 -25.5 -163 t-77 -129.5t-130.5 -86t-183 -31.5h-58h-156h-226h-267.5h-278.5h-263h-49q-102 0 -179 28.5t-129.5 80t-79 122t-28.5 154.5l-2 834q0 8 -1 14t-1 12z" />
<glyph unicode="x" d="M76 1256q4 50 23.5 98.5t54.5 83.5t83 58.5t100 30.5q21 3 41 3q30 0 59 -6q48 -10 83 -43l320 -320h2q8 -8 18 -4l8 4l318 320q31 29 76 41q36 10 75 10q10 0 20 -1q50 -3 98 -22.5t83 -54.5t58.5 -84t30.5 -100q3 -20 3 -39q0 -31 -7 -61q-11 -50 -44 -83l-322 -323 q-6 -8 -2 -16q2 -4 5 -7l321 -321q29 -29 41 -75q10 -37 10 -76q0 -10 -1 -19q-3 -49 -22.5 -97.5t-54.5 -82.5q-35 -35 -84 -58.5t-100 -31.5q-21 -3 -42 -3q-29 1 -58 7q-49 10 -82 43l-320 321q-6 4 -10 3t-8 -1q-4 -2 -8 -2l-322 -321q-29 -31 -75 -43q-34 -9 -69 -10 q-13 0 -26 2q-49 4 -98 23t-84 54t-57.5 83t-29.5 100q-3 22 -3 43q0 30 6 58q10 48 43 83l319 319v2q6 10 5 19l-5 8l-319 317q-31 31 -43 76q-9 34 -9 71q0 11 1 24z" />
<glyph unicode="y" horiz-adv-x="1710" d="M131 1104v84v35q0 68 20.5 126t61.5 102t101.5 69.5t142.5 25.5q92 0 148.5 -34.5t87 -84t40.5 -102.5t10 -88v-453q0 -35 5.5 -65.5t19.5 -52.5q10 -12 35.5 -28.5t54.5 -16.5q35 -2 55.5 5t24.5 11q33 25 47 63.5t14 83.5l-2 437q0 80 22.5 140t61.5 101t90.5 62.5 t108.5 21.5q92 0 151.5 -28.5t93.5 -74.5t47 -104.5t13 -115.5l4 -844q0 -238 -44 -431.5t-151.5 -330.5t-286.5 -213t-448 -76q-18 0 -49.5 1t-67.5 4t-74 8.5t-71 11.5q-29 6 -59.5 15t-46.5 20q-66 31 -107 92t-41 143v12q2 33 10.5 63t20.5 54q33 61 90.5 99t128.5 38 q31 0 56.5 -8t37.5 -12q31 -8 63 -11t66 -5q23 -1 46 -1q62 0 117 8q75 11 128.5 42.5t84 89t32.5 143.5q-59 -61 -144 -98q-77 -33 -206 -33h-29q-68 2 -127 17.5t-107.5 37t-85 47t-59.5 48.5q-66 63 -96.5 151t-34.5 193q-2 201 -2 358q0 68 -1 132.5t-1 115.5z" />
<glyph unicode="z" horiz-adv-x="1679" d="M86 1286q0 80 28.5 129t75 76t100.5 35t107 8h836v-4q18 2 37 2q24 0 50 -3q46 -5 81 -24q49 -27 85 -74t46 -106q4 -35 1 -63.5t-11 -49.5q-8 -23 -21 -43l-500 -626q-4 -4 -4 -8q0 -6 9 -7h55t89 1t93 1h70q53 0 108.5 -8t99.5 -35.5t71.5 -81t27.5 -145.5 q0 -80 -28.5 -130t-73.5 -78.5t-100.5 -40t-108.5 -11.5h-867h-12q-29 0 -66.5 6t-74.5 21.5t-70 43t-49 72.5q-9 32 -9 87v12q1 64 36 116l508 617q6 6 6 14q0 14 -25 15h-52t-91 -1.5t-93 -1.5h-57q-53 0 -108.5 7.5t-99.5 37t-71.5 86t-27.5 154.5z" />
<glyph unicode="&#xa1;" horiz-adv-x="677" d="M78 1268q0 66 18.5 114t48.5 82q33 33 78 50.5t107 17.5q59 0 107 -14t83 -45q63 -61 70 -205q0 -111 -70 -185q-35 -35 -83 -51t-107 -16q-119 0 -180 69q-72 72 -72 183zM82 -461v1139q0 53 19.5 99t54 81t81 54.5t99.5 19.5t99 -19.5t81 -54.5t55.5 -81t20.5 -99 v-1139q0 -53 -20.5 -99t-55.5 -81t-81 -54.5t-99 -19.5t-99.5 19.5t-81 54.5t-54 81t-19.5 99z" />
<glyph unicode="&#xb4;" horiz-adv-x="1048" d="M126 2511q-7 41 0 79t25.5 70.5t45.5 53.5l333 338q35 35 80 52t92.5 17t92.5 -17.5t82 -51.5q31 -33 49 -73t21 -82t-7 -83t-35 -78q-8 -10 -16 -18t-17 -15q-8 -8 -18 -14l-401 -274q-27 -18 -63 -35t-75 -20t-78.5 13.5t-74.5 61.5q-29 35 -36 76z" />
<glyph unicode="&#xbf;" horiz-adv-x="872" d="M-172 -82q2 31 16.5 77t45 104.5t80.5 128t124 147.5q37 37 66.5 64.5t51 55t34 56.5t14.5 65q4 45 5 85t9 69q25 86 82.5 118t151.5 32q72 0 130 -30t85 -120q10 -31 12 -71t2 -91q0 -66 -13 -119t-32.5 -97t-45 -79.5t-50.5 -62.5q-33 -37 -67.5 -75t-63.5 -69.5 t-51.5 -56t-30.5 -35.5q-45 -45 -54.5 -93t8 -87t57.5 -64.5t95 -25.5q80 0 131.5 27.5t88 64.5t65.5 72t64 49q57 23 112.5 14.5t98.5 -38t70.5 -75.5t29.5 -96q2 -39 -8.5 -76.5t-25.5 -68.5t-30.5 -54.5t-23.5 -31.5q-98 -113 -228.5 -176.5t-306.5 -63.5 q-354 -2 -567 201q-80 82 -112.5 184.5t-18.5 241.5zM252 1270q7 144 70 205q35 31 83 45t107 14q61 0 106.5 -17.5t77.5 -50.5q31 -35 49.5 -83t18.5 -113q0 -111 -72 -183q-61 -70 -180 -69q-59 0 -107.5 16.5t-82.5 50.5q-70 74 -70 185z" />
<glyph unicode="&#xc0;" horiz-adv-x="2160" d="M30 330.5q3 66.5 31 130.5l711 1593q23 57 73 106.5t109 77.5q25 12 57.5 17.5t66.5 5.5t67 -5t57 -18q57 -27 106.5 -73.5t75.5 -110.5l713 -1593q29 -63 31 -130t-19.5 -125.5t-63.5 -105.5t-103 -73q-61 -27 -126 -25t-123.5 26.5t-106.5 70.5t-77 112l-71 162h-719 l-72 -162q-29 -63 -77 -110.5t-106 -72t-123 -26.5t-126 25t-103 73.5t-63.5 105t-18.5 125zM465 2903q4 42 21.5 82t50.5 71q37 37 82 54t92 17t92 -17.5t80 -53.5l338 -336q25 -20 44 -53t26 -72t-1 -79t-35 -77q-37 -45 -76.5 -61.5t-78.5 -13.5t-75 19.5t-64 35.5 l-402 274q-10 6 -18 14q-18 14 -33 35q-25 37 -36 78t-7 83zM911 872.5q4 -10.5 11 -14.5q8 -6 20 -8h297q23 4 24 18.5t-1 18.5l-158 424q-6 10 -13.5 10t-11.5 -2q-8 -4 -12 -8l-154 -408q-6 -20 -2 -30.5z" />
<glyph unicode="&#xc1;" horiz-adv-x="2170" d="M29.5 331q-2.5 -67 19 -125.5t63.5 -105.5t103 -73q61 -27 126 -25t123 26.5t106 71.5t77 111l72 162h719l71 -162q29 -66 77 -112t106.5 -70.5t123 -26.5t126.5 25q61 27 103 73.5t63.5 105t19.5 125.5t-31 130l-713 1593q-27 63 -75.5 110.5t-106.5 73.5 q-25 12 -57.5 17.5t-66.5 5.5t-66.5 -5t-57.5 -18q-59 -29 -109 -78t-73 -106l-711 -1593q-29 -63 -31.5 -130zM802 2511q-7 41 0 79t25.5 70.5t44.5 53.5l334 338q35 35 80 52t92 17t92.5 -17.5t81.5 -51.5q31 -33 49.5 -73t21.5 -82t-7 -83t-35 -78q-8 -10 -16.5 -18 t-16.5 -15q-8 -8 -18 -14l-402 -274q-27 -18 -62.5 -35t-74.5 -20t-79 13.5t-74 61.5q-29 35 -36 76zM911.5 872.5q-4.5 10.5 1.5 30.5l154 408q4 4 12 8q4 2 11.5 2t13.5 -10l158 -424q2 -4 1 -18.5t-24 -18.5h-297q-12 2 -20 8q-6 4 -10.5 14.5z" />
<glyph unicode="&#xc2;" horiz-adv-x="2170" d="M32 330.5q3 66.5 31 130.5l711 1593q23 57 73 106.5t109 77.5q25 12 58 17.5t66.5 5.5t66.5 -5t57 -18q57 -27 106.5 -73.5t75.5 -110.5l713 -1593q29 -63 31 -130t-19.5 -125.5t-63.5 -105.5t-103 -73q-61 -27 -126 -25t-123.5 26.5t-106.5 70.5t-77 112l-71 162h-719 l-72 -162q-29 -63 -77 -110.5t-106 -72t-122.5 -26.5t-126.5 25q-61 27 -103 73.5t-63.5 105t-18.5 125zM489 2566q0 37 12.5 71t41.5 56q0 2 2 2t4 4l43 35v2l340 289l16 16q4 4 8 6q4 4 7.5 5.5t7.5 5.5l4 4q2 0 6 4q4 2 6 4t6 2q39 25 90 25q47 0 88 -25q4 0 5.5 -2 t5.5 -4q8 -4 6 -4l6 -4q2 -2 14 -11l6 -6q4 -4 8.5 -8t10.5 -8l340 -289v-2l43 -35q2 -4 3 -4t3 -2q27 -23 40 -56.5t12 -70.5t-15 -74.5t-43 -70.5q-6 -8 -14.5 -15.5t-16.5 -15.5l-4 -4q-51 -41 -109.5 -48t-105.5 21q-4 4 -6 5t-4 3l-8 5l-50 43v2l-215 182l-217 -182v-2 l-51 -43q-2 -2 -3 -2t-3 -3q-8 -4 -10 -8q-47 -29 -105.5 -21.5t-109.5 48.5l-4 4q-10 8 -17.5 15.5l-15.5 15.5q-29 33 -43.5 70.5t-14.5 74.5zM913.5 872.5q4.5 -10.5 10.5 -14.5q8 -6 20 -8h297q23 4 24 18.5t-1 18.5l-158 424q-6 10 -13.5 10t-11.5 -2q-8 -4 -12 -8 l-154 -408q-6 -20 -1.5 -30.5z" />
<glyph unicode="&#xc3;" horiz-adv-x="2172" d="M32 330.5q3 66.5 31 130.5l711 1593q23 57 73 106.5t109 77.5q25 12 58 17.5t66.5 5.5t66.5 -5t57 -18q57 -27 106.5 -73.5t75.5 -110.5l713 -1593q29 -63 31 -130t-19.5 -125.5t-63.5 -105.5t-103 -73q-61 -27 -126 -25t-123.5 26.5t-106.5 70.5t-77 112l-71 162h-719 l-72 -162q-29 -63 -77 -110.5t-106 -72t-122.5 -26.5t-126.5 25q-61 27 -103 73.5t-63.5 105t-18.5 125zM479 2583q2 6 8.5 28.5t10.5 32.5q14 43 42.5 87t72.5 81t105.5 59.5t141.5 22.5q111 -2 177.5 -42t121.5 -110q16 -18 43 -35.5t60 -13.5t49 17.5t23 30t9.5 34.5 t6.5 33q4 18 18 37.5t41 32t63.5 16.5t83.5 -6q39 -8 65 -32t38 -57.5t13 -73.5t-7 -81q-4 -14 -8 -28.5t-8 -30.5q-16 -41 -44 -86t-72 -82t-105.5 -60.5t-143.5 -23.5q-111 2 -177.5 42t-121.5 107q-14 20 -42 37.5t-60 13.5q-33 -4 -49.5 -17t-23.5 -30.5t-9 -36 t-6 -30.5q-4 -20 -18.5 -39t-41 -31t-63.5 -16t-84 6q-78 16 -101.5 88t-7.5 156zM913.5 872.5q4.5 -10.5 10.5 -14.5q8 -6 20 -8h297q23 4 24 18.5t-1 18.5l-158 424q-6 10 -13.5 10t-11.5 -2q-8 -4 -12 -8l-154 -408q-6 -20 -1.5 -30.5z" />
<glyph unicode="&#xc4;" horiz-adv-x="2146" d="M25.5 331q-2.5 -67 19 -125.5t63.5 -105.5t103 -73q61 -27 125.5 -25t123 26.5t106.5 71.5t77 111l72 162h719l71 -162q29 -66 77 -112t106.5 -70.5t123 -26.5t125.5 25t103.5 73.5t64 105t19.5 125.5t-31 130l-713 1593q-27 63 -76 110.5t-106 73.5q-25 12 -57.5 17.5 t-66.5 5.5t-66.5 -5t-57.5 -18q-59 -29 -109 -78t-73 -106l-711 -1593q-29 -63 -31.5 -130zM428 2632q4 119 70 188q66 70 184 70q137 0 203 -70q59 -68 59 -190q0 -117 -67 -185q-61 -61 -197 -65q-115 4 -182 67q-66 66 -70 185zM907.5 872.5q-4.5 10.5 1.5 30.5l154 408 q4 4 12 8q4 2 11.5 2t13.5 -10l157 -424q2 -4 1.5 -18.5t-23.5 -18.5h-297q-12 2 -20 8q-6 4 -10.5 14.5zM1208 2632q0 115 68 188q35 35 81 52.5t105 17.5q138 0 201 -70q61 -68 61 -190q0 -117 -67 -185q-33 -33 -82 -48t-115 -17q-115 4 -182 67q-70 70 -70 185z" />
<glyph unicode="&#xc7;" horiz-adv-x="2226" d="M78 1096q4 303 83 521t226 351q305 268 817 262q512 -2 795 -293l16 -22q12 -10 36 -38t47.5 -66.5t38.5 -89t9 -105.5q-6 -66 -42 -121t-94 -89t-136 -42t-164 20q-51 18 -87 56.5t-85 77t-129 66.5t-217 26q-25 0 -68 -5.5t-91 -20.5t-99 -44t-93 -77t-73 -117.5 t-37 -165.5q-2 -16 -2 -52t6 -81q20 -145 83 -229.5t136.5 -127.5t144 -54t109.5 -11q125 -2 200 25.5t125 64.5t88 76t89 57q86 29 164 20.5t136 -43t95 -90t41 -123.5q4 -47 -10 -95t-37 -89q-51 -74 -106 -129q-246 -250 -654 -293l-104 -121q29 -8 58.5 -18t58.5 -25 q66 -33 102.5 -77t52 -93t14.5 -100t-12 -98q-14 -80 -52 -127t-79 -74q-66 -43 -133 -56.5t-164 5.5q-78 16 -136 54t-99 91q-10 14 -15.5 34.5t-4.5 42t11.5 42t34.5 37.5q47 33 94.5 18.5t73.5 -43.5q14 -16 35 -30.5t55 -22.5q16 -4 33 -4t33 4q12 4 39 16.5t37 53.5 q6 16 8 36.5t-4 41t-21.5 40t-46.5 31.5q-41 14 -74.5 13t-65.5 -6t-62.5 -8t-63.5 7q-57 14 -68 72q-6 25 0.5 43t10.5 22q2 2 18.5 21.5t41 48.5t54 63.5t56.5 65.5q-410 43 -668 289q-303 291 -309 801z" />
<glyph unicode="&#xc8;" horiz-adv-x="1949" d="M96 311v1606q0 63 24.5 120.5t66.5 99.5t98.5 66.5t122.5 24.5h26h27h1095q63 0 120 -24.5t100 -66.5t67.5 -99.5t24.5 -120.5q0 -66 -24.5 -122t-67.5 -98t-99.5 -66.5t-120.5 -24.5h-811q-10 0 -14 -5.5t-8 -9.5q-4 -6 -4 -12v-221h403q49 0 92 -18.5t76 -51.5 t51.5 -76t18.5 -92t-18.5 -92t-51.5 -75.5t-76 -51t-92 -18.5h-403v-230q0 -8 4 -16q6 -14 27 -14h806q63 0 120 -25t100 -67t67.5 -99t24.5 -121q0 -66 -24.5 -122t-67.5 -98t-99.5 -66.5t-120.5 -24.5h-1095q-8 0 -14.5 1t-12.5 1t-13 -1t-13 -1q-66 0 -122.5 24.5 t-98.5 66.5t-66.5 98.5t-24.5 121.5zM465 2903q4 42 21.5 82t50.5 71q37 37 82 54t92 17t92 -17.5t80 -53.5l338 -336q25 -20 44 -53t26 -72t-1 -79t-35 -77q-37 -45 -76.5 -61.5t-78.5 -13.5t-75 19.5t-64 35.5l-402 274q-10 6 -18 14q-18 14 -33 35q-25 37 -36 78t-7 83z " />
<glyph unicode="&#xc9;" horiz-adv-x="1992" d="M121 311q0 -66 24.5 -122t66.5 -98t98.5 -66.5t121.5 -24.5q6 0 13.5 1t13.5 1t12 -1t14 -1h1096q63 0 119.5 24.5t99.5 66.5t67.5 98.5t24.5 121.5q0 63 -24.5 120.5t-67.5 99.5t-99.5 67t-119.5 25h-807q-20 0 -26 14q-4 8 -5 16v230h404q49 0 92 18.5t76 51t51 75.5 t18 92t-18 92t-51 76t-76 51.5t-92 18.5h-404v221q0 6 5 12q4 4 8 9.5t14 5.5h811q63 0 119.5 24.5t99.5 66.5t67.5 98t24.5 122q0 63 -24.5 120.5t-67.5 99.5t-99 66.5t-120 24.5h-1096h-26h-27q-66 0 -122 -24.5t-98 -66.5t-66.5 -99.5t-24.5 -120.5v-1606zM699 2511 q-7 41 0.5 79t25.5 70.5t45 53.5l334 338q35 35 80 52t92 17t92 -17.5t82 -51.5q31 -33 49.5 -73t21.5 -82t-7.5 -83t-34.5 -78q-8 -10 -16.5 -18t-16.5 -15q-9 -8 -19 -14l-401 -274q-27 -18 -62.5 -35t-74.5 -20t-79 13.5t-75 61.5q-29 35 -36 76z" />
<glyph unicode="&#xca;" horiz-adv-x="1992" d="M123 311v1606q0 63 24.5 120.5t66.5 99.5t98.5 66.5t121.5 24.5h27h26h1096q63 0 119.5 -24.5t99.5 -66.5t67.5 -99.5t24.5 -120.5q0 -66 -24.5 -122t-67.5 -98t-99 -66.5t-120 -24.5h-811q-10 0 -14 -5.5t-8 -9.5q-4 -6 -5 -12v-221h404q49 0 92 -18.5t76 -51.5t51 -76 t18 -92t-18 -92t-51 -75.5t-76 -51t-92 -18.5h-404v-230q0 -8 5 -16q6 -14 26 -14h807q63 0 119.5 -25t99.5 -67t67.5 -99t24.5 -121q0 -66 -24.5 -122t-67.5 -98t-99 -66.5t-120 -24.5h-1096q-8 0 -14 1t-12 1t-13.5 -1t-13.5 -1q-66 0 -122 24.5t-98 66.5t-66.5 98.5 t-24.5 121.5zM422 2566q0 37 12 71t41 56q0 2 2 2t4 4l43 35v2l340 289l17 16q4 4 8 6q4 4 7 5.5t7 5.5l4 4q2 0 6 4q4 2 6.5 4t6.5 2q39 25 90 25q47 0 88 -25q4 0 5 -2t5 -4q8 -4 6 -4l6 -4q2 -2 15 -11l6 -6l8 -8t10 -8l340 -289v-2l43 -35q2 -4 3 -4t3 -2 q27 -23 40.5 -56.5t12.5 -70.5t-15.5 -74.5t-43.5 -70.5q-6 -8 -14 -15.5t-16 -15.5l-5 -4q-51 -41 -109 -48t-106 21q-4 4 -6 5t-4 3l-8 5l-49 43v2l-215 182l-217 -182v-2l-51 -43q-2 -2 -3.5 -2t-3.5 -3q-8 -4 -10 -8q-47 -29 -105.5 -21.5t-109.5 48.5l-4 4 q-10 8 -17.5 15.5l-15.5 15.5q-29 33 -43 70.5t-14 74.5z" />
<glyph unicode="&#xcb;" horiz-adv-x="1998" d="M125 311q0 -66 24.5 -122t66.5 -98t98.5 -66.5t121.5 -24.5q6 0 13.5 1t13.5 1t12 -1t14 -1h1096q63 0 119.5 24.5t99.5 66.5t67.5 98.5t24.5 121.5q0 63 -24.5 120.5t-67.5 99.5t-99.5 67t-119.5 25h-807q-20 0 -26 14q-4 8 -4 16v230h403q49 0 92 18.5t76 51t51.5 75.5 t18.5 92t-18.5 92t-51.5 76t-76 51.5t-92 18.5h-403v221q0 6 4 12q4 4 8 9.5t14 5.5h811q63 0 119.5 24.5t99.5 66.5t67.5 98t24.5 122q0 63 -24.5 120.5t-67.5 99.5t-99 66.5t-120 24.5h-1096h-26h-27q-66 0 -122 -24.5t-98 -66.5t-66.5 -99.5t-24.5 -120.5v-1606z M387 2632q4 119 70 188q66 70 184 70q137 0 203 -70q59 -68 59 -190q0 -117 -67 -185q-61 -61 -197 -65q-115 4 -182 67q-66 66 -70 185zM1167 2632q0 115 68 188q35 35 81 52.5t105 17.5q138 0 201 -70q61 -68 61 -190q0 -117 -67 -185q-33 -33 -82 -48t-115 -17 q-115 4 -182 67q-70 70 -70 185z" />
<glyph unicode="&#xcc;" horiz-adv-x="847" d="M-174 2903q4 42 21.5 82t50.5 71q37 37 82 54t92 17t92 -17.5t80 -53.5l338 -336q25 -20 44 -53t26 -72t-1 -79t-35 -77q-37 -45 -76.5 -61.5t-78.5 -13.5t-75 19.5t-64 35.5l-402 274q-10 6 -18 14q-18 14 -33 35q-25 37 -36 78t-7 83zM106 311v1606q0 66 25 123t67 99 t98 66.5t122 24.5q63 0 120.5 -24.5t99.5 -66.5t66.5 -99.5t24.5 -122.5v-1606q0 -66 -24.5 -122t-66.5 -98t-99.5 -66.5t-120.5 -24.5q-66 0 -122 24.5t-98 66.5t-67 98.5t-25 121.5z" />
<glyph unicode="&#xcd;" horiz-adv-x="837" d="M100 311v1606q0 66 25 123t66.5 99t98 66.5t122.5 24.5q63 0 120.5 -24.5t99.5 -66.5t66.5 -99.5t24.5 -122.5v-1606q0 -66 -24.5 -122t-66.5 -98t-99.5 -66.5t-120.5 -24.5q-66 0 -122.5 24.5t-98 66.5t-66.5 98.5t-25 121.5zM148 2511q-7 41 0.5 79t26 70.5t44.5 53.5 l334 338q35 35 80 52t92 17t92 -17.5t82 -51.5q31 -33 49.5 -73t21.5 -82t-7.5 -83t-34.5 -78q-8 -10 -16.5 -18t-16.5 -15q-8 -8 -18 -14l-402 -274q-27 -18 -62.5 -35t-74.5 -20t-79 13.5t-75 61.5q-29 35 -36 76z" />
<glyph unicode="&#xce;" horiz-adv-x="835" d="M-174 2566q0 37 12 71t41 56q0 2 2 2t4 4l43 35v2l340 289l17 16q4 4 8 6q4 4 7 5.5t7 5.5l4 4q2 0 6 4q4 2 6.5 4t6.5 2q39 25 90 25q47 0 88 -25q4 0 5 -2t5 -4q8 -4 6 -4l6 -4q2 -2 15 -11l6 -6l8 -8t10 -8l340 -289v-2l43 -35q2 -4 3 -4t3 -2q27 -23 40.5 -56.5 t12.5 -70.5t-15.5 -74.5t-43.5 -70.5q-6 -8 -14 -15.5t-16 -15.5l-4 -4q-51 -41 -109.5 -48t-106.5 21q-4 4 -6 5t-4 3l-8 5l-49 43v2l-215 182l-217 -182v-2l-51 -43q-2 -2 -3.5 -2t-3.5 -3q-8 -4 -10 -8q-47 -29 -105.5 -21.5t-109.5 48.5l-4 4q-10 8 -17.5 15.5 l-15.5 15.5q-29 33 -43 70.5t-14 74.5zM109 311v1606q0 66 24.5 123t66.5 99t98 66.5t122 24.5q63 0 120.5 -24.5t99.5 -66.5t66.5 -99.5t24.5 -122.5v-1606q0 -66 -24.5 -122t-66.5 -98t-99.5 -66.5t-120.5 -24.5q-66 0 -122 24.5t-98 66.5t-66.5 98.5t-24.5 121.5z" />
<glyph unicode="&#xcf;" horiz-adv-x="858" d="M-219 2632q4 119 69 188q66 70 185 70q137 0 203 -70q59 -68 59 -190q0 -117 -68 -185q-61 -61 -196 -65q-115 4 -183 67q-66 66 -69 185zM113 311v1606q0 66 24.5 123t66.5 99t98 66.5t122 24.5q63 0 120.5 -24.5t99.5 -66.5t66.5 -99.5t24.5 -122.5v-1606 q0 -66 -24.5 -122t-66.5 -98t-99.5 -66.5t-120.5 -24.5q-66 0 -122 24.5t-98 66.5t-66.5 98.5t-24.5 121.5zM561 2632q0 115 68 188q35 35 81 52.5t105 17.5q138 0 201 -70q61 -68 61 -190q0 -117 -67 -185q-33 -33 -82 -48t-115 -17q-115 4 -182 67q-70 70 -70 185z" />
<glyph unicode="&#xd1;" horiz-adv-x="2164" d="M113 311v1606q0 59 21.5 111.5t58 94.5t87 68.5t107.5 32.5q94 20 194.5 -20.5t170.5 -135.5l684 -907v756q0 63 24.5 120.5t67.5 98.5t99 65.5t122 24.5q63 0 119.5 -24.5t98.5 -65.5t66.5 -98.5t24.5 -120.5v-1606q0 -66 -24.5 -122t-66.5 -98t-98.5 -66.5 t-119.5 -24.5q-8 0 -16.5 1t-14.5 1q-84 -2 -167 40t-144 124l-672 893v-748q0 -66 -24.5 -122t-67.5 -98t-100.5 -66.5t-120.5 -24.5t-119.5 24.5t-98.5 66.5t-66.5 98.5t-24.5 121.5zM505 2480q-1 39 7 80q12 63 45 119.5t81 97.5t109.5 64.5t135.5 23.5q111 0 175 -40 t118 -105q16 -18 41.5 -36t54.5 -13q33 2 49 15t23.5 29.5t9.5 35t6 32.5q10 37 58.5 66.5t144.5 11.5q37 -8 59.5 -31.5t33.5 -56.5t13 -72t-2 -80q-6 -66 -40 -121t-84 -95t-114.5 -63.5t-132.5 -25.5q-106 4 -171.5 43t-120.5 105q-14 20 -42 35.5t-57 13.5 q-33 -4 -48 -16.5t-22.5 -30t-9.5 -35.5t-6 -31q-4 -18 -19.5 -35.5t-40 -30t-60 -16.5t-83.5 6q-37 8 -61.5 31t-36.5 54.5t-13 70.5z" />
<glyph unicode="&#xd2;" horiz-adv-x="2252" d="M25 1094q10 604 311 870q303 268 813 262q510 -4 793 -289q285 -291 286 -845q-10 -504 -295 -793q-287 -293 -788 -299q-512 6 -813 295t-307 799zM586 2903q4 42 21.5 82t49.5 71q37 37 82 54t92.5 17t92.5 -17.5t80 -53.5l337 -336q25 -20 44.5 -53t26.5 -72t-1 -79 t-35 -77q-37 -45 -76.5 -61.5t-78.5 -13.5t-75 19.5t-65 35.5l-401 274q-10 6 -18 14q-18 14 -33 35q-25 37 -36 78t-7 83zM680 1106q4 -207 125 -326q123 -119 330 -118q204 3 319 120q119 119 119 322q0 227 -117 344q-115 117 -321 117q-205 2 -330 -107 q-121 -106 -125 -352z" />
<glyph unicode="&#xd3;" horiz-adv-x="2242" d="M23 1094q6 -510 307 -799t813 -295q502 6 788 299q285 289 295 793q-2 554 -287 845q-283 285 -792 289q-510 6 -813 -262q-301 -266 -311 -870zM678 1106q4 246 125 352q125 109 330 107q207 0 321 -117q117 -117 117 -344q0 -203 -119 -322q-115 -117 -319 -120 q-207 0 -330 118q-121 119 -125 326zM906 2511q-7 41 0 79t25.5 70.5t45.5 53.5l334 338q35 35 80 52t92 17t92 -17.5t82 -51.5q31 -33 49 -73t21.5 -82t-7 -83t-34.5 -78q-8 -10 -16.5 -18t-16.5 -15q-9 -8 -19 -14l-401 -274q-27 -18 -62.5 -35t-74.5 -20t-79 13.5 t-75 61.5q-29 35 -36 76z" />
<glyph unicode="&#xd4;" horiz-adv-x="2252" d="M20 1094q10 604 312 870q303 268 813 262q509 -4 792 -289q285 -291 287 -845q-10 -504 -295 -793q-287 -293 -788 -299q-512 6 -813 295t-308 799zM524 2566q0 37 12.5 71t41.5 56q0 2 2 2t4 4l43 35v2l340 289l16 16q4 4 8 6q4 4 7 5.5t8 5.5l4 4q2 0 6 4q4 2 6 4t6 2 q39 25 90 25q47 0 88 -25q4 0 5 -2t6 -4q8 -4 6 -4l6 -4q2 -2 14 -11l6 -6q4 -4 8.5 -8t10.5 -8l340 -289v-2l43 -35q2 -4 3 -4t3 -2q27 -23 40 -56.5t12 -70.5t-15.5 -74.5t-42.5 -70.5q-6 -8 -14.5 -15.5t-16.5 -15.5l-4 -4q-51 -41 -109.5 -48t-105.5 21q-4 4 -6 5t-4 3 l-9 5l-49 43v2l-215 182l-217 -182v-2l-51 -43q-2 -2 -3 -2t-3 -3q-8 -4 -10 -8q-47 -29 -105.5 -21.5t-110.5 48.5l-4 4q-10 8 -17 15.5t-15 15.5q-29 33 -43.5 70.5t-14.5 74.5zM676 1106q4 -207 125 -326q123 -119 329 -118q205 3 320 120q119 119 119 322 q0 227 -117 344q-115 117 -322 117q-205 2 -329 -107q-121 -106 -125 -352z" />
<glyph unicode="&#xd5;" horiz-adv-x="2242" d="M23 1094q10 604 311 870q303 268 813 262q509 -4 792 -289q285 -291 287 -845q-10 -504 -295 -793q-287 -293 -788 -299q-512 6 -813 295t-307 799zM560 2480q-1 39 7 80q2 8 7.5 31.5t9.5 31.5q14 39 41.5 83t70.5 79t102.5 57.5t139.5 22.5q111 0 175.5 -40t117.5 -105 q16 -18 41.5 -36t54.5 -13q33 2 49.5 15t23.5 29.5t9 35t6 32.5q10 37 58.5 66.5t144.5 11.5q37 -8 61.5 -31.5t37 -56.5t13.5 -73t-8 -79q0 -6 -4 -18q-2 -6 -4 -14q-2 -6 -3 -13.5t-3 -11.5q-16 -41 -44 -84t-71 -80t-102 -60.5t-139 -23.5q-106 4 -172 43t-121 105 q-14 20 -42 35.5t-56 13.5q-33 -4 -48.5 -16.5t-22.5 -30t-9 -35.5t-7 -31q-4 -18 -19 -35.5t-39.5 -30t-60.5 -16.5t-83 6q-37 8 -61.5 31t-37 54.5t-13.5 70.5zM678 1106q4 -207 125 -326q123 -119 330 -118q204 3 319 120q119 119 119 322q0 227 -117 344 q-115 117 -321 117q-205 2 -330 -107q-121 -106 -125 -352z" />
<glyph unicode="&#xd6;" horiz-adv-x="2242" d="M23 1094q6 -510 307 -799t813 -295q502 6 788 299q285 289 295 793q-2 554 -287 845q-283 285 -792 289q-510 6 -813 -262q-301 -266 -311 -870zM457 2632q4 119 69 188q66 70 185 70q136 0 202 -70q59 -68 60 -190q0 -117 -68 -185q-61 -61 -196 -65q-115 4 -183 67 q-66 66 -69 185zM678 1106q4 246 125 352q125 109 330 107q207 0 321 -117q117 -117 117 -344q0 -203 -119 -322q-115 -117 -319 -120q-207 0 -330 118q-121 119 -125 326zM1237 2632q0 115 68 188q35 35 81 52.5t105 17.5q138 0 201 -70q61 -68 61 -190q0 -117 -67 -185 q-33 -33 -82.5 -48t-114.5 -17q-115 4 -182 67q-70 70 -70 185z" />
<glyph unicode="&#xd9;" horiz-adv-x="2136" d="M88 1026v813q0 88 24.5 162t71.5 127t117 83t162 30q113 0 180.5 -45.5t102 -110t45 -134t10.5 -118.5v-924q0 -72 27.5 -119t67.5 -73.5t86 -37.5t85 -11t85 11t86 37.5t66.5 74t26.5 118.5l2 924q0 49 10.5 118.5t45 134t101 110t181.5 45.5q92 0 163 -30t118 -83 t71.5 -127t24.5 -162v-813q-2 -121 -13.5 -227.5t-38 -200.5t-71.5 -175t-117 -149q-274 -262 -737 -274v-2q-2 0 -2 1t-2 1l-2 -2v2q-461 12 -739 274q-72 68 -117 149t-71.5 175t-37 200.5t-12.5 227.5zM506 2903q4 42 21.5 82t50.5 71q37 37 82 54t92 17t92 -17.5 t80 -53.5l338 -336q25 -20 44 -53t26 -72t-1 -79t-35 -77q-37 -45 -76.5 -61.5t-78.5 -13.5t-75 19.5t-65 35.5l-401 274q-10 6 -18 14q-18 14 -33 35q-25 37 -36 78t-7 83z" />
<glyph unicode="&#xda;" horiz-adv-x="2129" d="M88 1026q2 -121 12.5 -227.5t37 -200.5t71.5 -175t117 -149q279 -262 739 -274v-2l2 2q2 0 2 -1t2 -1v2q463 12 737 274q72 68 117 149t71.5 175t38 200.5t13.5 227.5v813q0 88 -24.5 162t-71.5 127t-118 83t-163 30q-115 0 -181.5 -45.5t-101 -110t-45 -134 t-10.5 -118.5l-2 -924q0 -72 -26.5 -119t-66.5 -73.5t-86 -37.5t-85 -11t-85 11t-86 37.5t-67.5 74t-27.5 118.5v924q0 49 -10.5 118.5t-45 134t-102.5 110t-180 45.5q-92 0 -162 -30t-117 -83t-71.5 -127t-24.5 -162v-813zM806 2511q-7 41 0 79t25.5 70.5t45.5 53.5 l333 338q35 35 80 52t92.5 17t92.5 -17.5t81 -51.5q31 -33 49.5 -73t21.5 -82t-7 -83t-35 -78q-8 -10 -16 -18t-17 -15q-8 -8 -18 -14l-401 -274q-27 -18 -63 -35t-75 -20t-78.5 13.5t-74.5 61.5q-29 35 -36 76z" />
<glyph unicode="&#xdb;" horiz-adv-x="2150" d="M94 1026v813q0 88 24.5 162t72 127t117 83t161.5 30q113 0 180.5 -45.5t102 -110t45 -134t10.5 -118.5v-924q0 -72 27.5 -119t67.5 -73.5t86 -37.5t85 -11t85 11t86 37.5t66.5 74t26.5 118.5l2 924q0 49 10.5 118.5t45.5 134t101 110t181 45.5q92 0 163 -30t118 -83 t71.5 -127t24.5 -162v-813q-2 -121 -13 -227.5t-38 -200.5t-72 -175t-116 -149q-274 -262 -738 -274v-2q-2 0 -2 1t-2 1l-2 -2v2q-461 12 -739 274q-72 68 -117 149t-71.5 175t-37 200.5t-12.5 227.5zM512 2566q0 37 12.5 71t40.5 56q0 2 2 2t4 4l43 35v2l340 289l17 16 q4 4 8 6q4 4 7 5.5t7 5.5l4 4q2 0 7 4q4 2 6 4t6 2q39 25 90 25q47 0 88 -25q4 0 5 -2t5 -4q8 -4 6 -4l7 -4q2 -2 14 -11l6 -6l8 -8t10 -8l340 -289v-2l43 -35q2 -4 3.5 -4t3.5 -2q27 -23 40 -56.5t12 -70.5t-15.5 -74.5t-43.5 -70.5q-6 -8 -14 -15.5t-16 -15.5l-4 -4 q-51 -41 -109.5 -48t-105.5 21q-4 4 -6.5 5t-4.5 3l-8 5l-49 43v2l-215 182l-217 -182v-2l-51 -43q-2 -2 -3 -2t-4 -3q-8 -4 -10 -8q-47 -29 -105.5 -21.5t-109.5 48.5l-4 4q-10 8 -17 15.5t-16 15.5q-29 33 -43 70.5t-14 74.5z" />
<glyph unicode="&#xdc;" horiz-adv-x="2134" d="M84 1026q2 -121 12 -227.5t37 -200.5t72 -175t117 -149q279 -262 739 -274v-2l2 2q2 0 2 -1t2 -1v2q463 12 737 274q72 68 117 149t71.5 175t38 200.5t13.5 227.5v813q0 88 -24.5 162t-71.5 127t-118 83t-163 30q-115 0 -181.5 -45.5t-101 -110t-45 -134t-10.5 -118.5 l-2 -924q0 -72 -26.5 -119t-66.5 -73.5t-86 -37.5t-85 -11t-85 11t-86 37.5t-67.5 74t-27.5 118.5v924q0 49 -10.5 118.5t-45 134t-102.5 110t-180 45.5q-92 0 -162 -30t-117 -83t-71.5 -127t-24.5 -162v-813zM395 2632q4 119 70 188q66 70 184 70q137 0 203 -70 q59 -68 59 -190q0 -117 -67 -185q-61 -61 -197 -65q-115 4 -182 67q-66 66 -70 185zM1176 2632q0 115 67 188q35 35 81 52.5t106 17.5q137 0 200 -70q61 -68 62 -190q0 -117 -68 -185q-33 -33 -82 -48t-115 -17q-115 4 -182 67q-70 70 -69 185z" />
<glyph unicode="&#xe0;" horiz-adv-x="1703" d="M74 731q6 412 211 592q57 51 114.5 85t120 55.5t135 29.5t158.5 8q43 0 89 -8t91 -25.5t82 -43t62 -60.5q20 98 87.5 134t161.5 36q49 0 93.5 -12.5t79 -36t56 -59t21.5 -80.5v-463v-658q0 -121 -66.5 -173t-193.5 -52q-47 0 -102 25.5t-92 93.5q-14 -12 -43 -31.5 t-78 -39t-123 -34t-178 -14.5q-86 0 -160 19.5t-135.5 48t-107.5 60.5t-72 58q-205 199 -211 545zM342 2137q4 42 21.5 82t50.5 71q37 37 82 54t92 17t92 -17t80 -54l338 -336q25 -20 44 -53t26.5 -72t-1 -79t-34.5 -77q-37 -45 -77 -61.5t-79 -13t-75 19.5t-64 35l-402 274 q-10 6 -18 15q-18 14 -33 34q-25 37 -36 78t-7 83zM604 739q2 -98 62 -157q59 -59 161 -60q99 1 158 60q57 59 59 157q-4 115 -57 168q-55 57 -160 58q-98 2 -161 -52q-59 -53 -62 -174z" />
<glyph unicode="&#xe1;" horiz-adv-x="1716" d="M74 731q6 -346 211 -545q27 -27 72.5 -58.5t107 -60t135.5 -48t160 -19.5q104 0 178 14.5t123 34t77.5 38.5t43.5 32q37 -68 92 -93.5t102 -25.5q127 0 193.5 52t66.5 173v658v463q0 45 -21.5 80.5t-56 59t-78.5 36t-94 12.5q-94 0 -161.5 -36t-87.5 -134 q-25 35 -62 60.5t-82 43t-91 25.5t-89 8q-86 0 -158.5 -8t-135 -29.5t-120 -55.5t-114.5 -85q-205 -180 -211 -592zM604 739q2 121 62 174q63 53 161 52q104 0 160 -58q53 -53 57 -168q-2 -98 -59 -157q-59 -59 -158 -60q-102 0 -161 60q-59 59 -62 157zM685 1733 q-7 41 0 78.5t25.5 70.5t45.5 53l334 338q35 35 79.5 52.5t92 17.5t92.5 -17.5t82 -52.5q31 -33 49 -72.5t21 -81.5t-7 -83t-35 -78q-8 -10 -16 -18.5t-16 -14.5q-9 -8 -19 -14l-401 -275q-27 -18 -63 -34.5t-74.5 -19.5t-78.5 13.5t-75 61.5q-29 35 -36 76z" />
<glyph unicode="&#xe2;" horiz-adv-x="1716" d="M74 731q6 412 211 592q57 51 114.5 85t120 55.5t135 29.5t158.5 8q43 0 89 -8t91 -25.5t82 -43t62 -60.5q20 98 87.5 134t161.5 36q49 0 93.5 -12.5t79 -36t56 -59t21.5 -80.5v-463v-658q0 -121 -66.5 -173t-193.5 -52q-47 0 -102 25.5t-92 93.5q-14 -12 -43 -31.5 t-78 -39t-123 -34t-178 -14.5q-86 0 -160 19.5t-135.5 48t-107.5 60.5t-72 58q-205 199 -211 545zM262 1821q0 37 12.5 70.5t40.5 56.5q0 2 2 2t5 4l43 35v2l340 288l16 17q4 4 8 6q4 4 7 5t7 5l5 4q2 0 6 4q4 2 6 4.5t6 2.5q39 25 90 24q47 0 88 -24q4 0 5 -2.5t5 -4.5 q8 -4 7 -4l6 -4q2 -2 14 -10l6 -6l8 -8t11 -9l340 -288v-2l43 -35q2 -4 3 -4t3 -2q27 -23 40 -56.5t12 -70.5t-15.5 -75t-42.5 -71q-6 -8 -14.5 -15t-16.5 -15l-4 -5q-51 -41 -109.5 -48t-105.5 22q-4 4 -6.5 5t-4.5 3l-8 4l-49 43v2l-215 182l-217 -182v-2l-51 -43 q-2 -2 -3 -2t-3 -2q-8 -4 -11 -8q-47 -29 -105 -22t-110 48l-4 5q-10 8 -17 15t-16 15q-29 33 -43 71t-14 75zM604 739q2 -98 62 -157q59 -59 161 -60q99 1 158 60q57 59 59 157q-4 115 -57 168q-55 57 -160 58q-98 2 -161 -52q-59 -53 -62 -174z" />
<glyph unicode="&#xe3;" horiz-adv-x="1716" d="M74 731q6 412 211 592q57 51 114.5 85t120 55.5t135 29.5t158.5 8q43 0 89 -8t91 -25.5t82 -43t62 -60.5q20 98 87.5 134t161.5 36q49 0 93.5 -12.5t79 -36t56 -59t21.5 -80.5v-463v-658q0 -121 -66.5 -173t-193.5 -52q-47 0 -102 25.5t-92 93.5q-14 -12 -43 -31.5 t-78 -39t-123 -34t-178 -14.5q-86 0 -160 19.5t-135.5 48t-107.5 60.5t-72 58q-205 199 -211 545zM308 1763q-1 39 7 80q12 63 45 119.5t81 97.5t109.5 64.5t135.5 23.5q111 0 175.5 -40t117.5 -105q16 -18 42 -34.5t54 -14.5q31 2 47.5 14t23.5 28.5t10 36t7 33.5 q10 37 58.5 66.5t144.5 11.5q37 -8 59.5 -31.5t33.5 -56.5t13.5 -71.5t-2.5 -79.5q-6 -66 -36.5 -123.5t-80.5 -100.5t-114.5 -65.5t-138.5 -16.5q-106 4 -172 43t-121 105q-14 20 -42 35.5t-56 13.5q-33 -4 -48.5 -16.5t-22.5 -29.5t-9 -35.5t-6 -31.5q-4 -18 -19.5 -35.5 t-40 -29.5t-60.5 -16.5t-83 6.5q-37 8 -61.5 30.5t-37 54t-13.5 70.5zM604 739q2 -98 62 -157q59 -59 161 -60q99 1 158 60q57 59 59 157q-4 115 -57 168q-55 57 -160 58q-98 2 -161 -52q-59 -53 -62 -174z" />
<glyph unicode="&#xe4;" horiz-adv-x="1716" d="M74 731q6 -346 211 -545q27 -27 72.5 -58.5t107 -60t135.5 -48t160 -19.5q104 0 178 14.5t123 34t77.5 38.5t43.5 32q37 -68 92 -93.5t102 -25.5q127 0 193.5 52t66.5 173v658v463q0 45 -21.5 80.5t-56 59t-78.5 36t-94 12.5q-94 0 -161.5 -36t-87.5 -134 q-25 35 -62 60.5t-82 43t-91 25.5t-89 8q-86 0 -158.5 -8t-135 -29.5t-120 -55.5t-114.5 -85q-205 -180 -211 -592zM246 1855q4 119 69 189q66 70 185 70q136 0 202 -70q59 -68 60 -191q0 -117 -68 -184q-61 -61 -196 -65q-115 4 -183 67q-66 66 -69 184zM604 739 q2 121 62 174q63 53 161 52q104 0 160 -58q53 -53 57 -168q-2 -98 -59 -157q-59 -59 -158 -60q-102 0 -161 60q-59 59 -62 157zM1026 1855q0 115 68 189q35 35 81 52.5t105 17.5q138 0 201 -70q61 -68 61 -191q0 -117 -67 -184q-33 -33 -82.5 -48t-114.5 -17q-115 4 -182 67 q-70 70 -70 184z" />
<glyph unicode="&#xe7;" horiz-adv-x="1568" d="M88 758v8v10q8 397 211 578q213 184 559 178q174 0 303 -56.5t228 -154.5q8 -8 22 -28.5t28.5 -48t26 -60.5t11.5 -66q0 -76 -26 -133t-69 -86q-39 -29 -77.5 -40t-73.5 -13t-65.5 4t-53.5 12q-39 10 -69.5 38t-36.5 34q-53 55 -160 59q-104 0 -164 -53q-59 -53 -59 -174 q0 -119 59 -174q59 -51 164 -51q104 0 160 57q6 8 36.5 34.5t69.5 39.5q23 6 53.5 12t65.5 4t73.5 -13t77.5 -38q43 -31 69 -88t26 -133q0 -35 -11.5 -68t-26 -60.5t-28.5 -47t-22 -27.5q-98 -98 -227.5 -154.5t-303.5 -56.5q-350 -6 -559 178q-203 180 -211 578z M445.5 -446.5q-1.5 36.5 37.5 63.5q39 29 77 18.5t61 -34.5q10 -14 27.5 -26.5t43.5 -16.5q27 -6 53 0q10 4 31 13t31 42q10 27 3 63.5t-54 57.5q-33 12 -59.5 12t-52.5 -4t-51.5 -7t-51.5 5v2q-47 10 -58 55q-4 18 2.5 34.5t10.5 21.5q0 2 31.5 39.5t70.5 82.5l102 119 l166 -31l33 -8l-121 -143q45 -10 94 -33q53 -27 83 -62.5t42.5 -75.5t11.5 -82t-10 -81q-12 -66 -42.5 -103.5t-63.5 -58.5q-53 -35 -107.5 -46t-132.5 5q-66 14 -111.5 45t-78.5 72q-16 25 -17.5 61.5z" />
<glyph unicode="&#xe8;" horiz-adv-x="1597" d="M57 752q2 78 8.5 146.5t18.5 129.5q23 98 61.5 178t110.5 146q37 31 88 63.5t122 58t163 42t209 14.5q119 -2 212 -28.5t163.5 -65.5t118.5 -84t75 -82q98 -147 111 -404q2 -41 2 -86t-4 -92q-2 -20 -5.5 -57t-13.5 -56q-18 -27 -59 -44t-117 -17h-106.5h-134t-143.5 1 t-135.5 1h-108.5h-62q-23 -31 6 -53q12 -10 36.5 -19.5t66.5 -17.5t105.5 -12t153.5 -4q25 2 52 -2q23 -4 51 -11.5t61 -21.5q47 -25 76 -71t29 -101q0 -82 -57.5 -135.5t-143.5 -61.5q-35 -4 -62.5 -5t-74.5 -1h-86q-143 -4 -235.5 14.5t-157.5 48.5q-68 33 -123.5 75 t-77.5 65q-104 100 -146.5 236t-46.5 313zM199 2137q4 42 21.5 82t49.5 71q37 37 82 54t92.5 17t92.5 -17t79 -54l338 -336q25 -20 44.5 -53t26.5 -72t-1 -79t-35 -77q-37 -45 -77 -61.5t-78.5 -13t-74.5 19.5t-65 35l-401 274q-10 6 -19 15q-18 14 -32 34q-25 37 -36 78 t-7 83zM610 962.5q-8 -26.5 1.5 -46t50.5 -19.5h335q25 0 32 15.5t4 37t-11 42t-14 30.5q-29 41 -81.5 60.5t-101.5 19.5q-100 0 -163 -53q-10 -10 -27 -35t-25 -51.5z" />
<glyph unicode="&#xe9;" horiz-adv-x="1562" d="M39 752q4 -176 46 -312.5t146 -236.5q23 -23 78.5 -65t122.5 -75q66 -31 158 -49t235 -14h86q47 0 75 1t63 5q86 8 143 61.5t57 135.5q0 55 -28.5 101t-75.5 71q-33 14 -61.5 21t-51.5 12q-27 4 -51 2q-90 0 -153.5 4t-105.5 12t-66.5 17.5t-37.5 19.5q-29 23 -6 53h62.5 h109t135 -1t143.5 -1h134.5h106.5q76 0 116.5 17.5t59.5 43.5q10 18 13 55.5t5 57.5q4 47 4 92t-2 86q-12 257 -110 404q-27 37 -75 82t-119 84t-164 65.5t-212 28.5q-117 2 -209 -14.5t-162.5 -42t-122 -58.5t-87.5 -63q-72 -66 -111 -146t-61 -178q-12 -61 -18.5 -130 t-8.5 -146zM582 1733q-7 41 0.5 78.5t26 70.5t44.5 53l334 338q35 35 80 52.5t92 17.5t92 -17.5t82 -52.5q31 -33 49.5 -72.5t21.5 -81.5t-7.5 -83t-34.5 -78q-8 -10 -16.5 -18.5t-16.5 -14.5q-8 -8 -18 -14l-402 -275q-27 -18 -62.5 -34.5t-74.5 -19.5t-79 13.5t-75 61.5 q-29 35 -36 76zM592 962.5q8 26.5 24.5 51t26.5 35.5q63 53 164 53q49 0 101.5 -19.5t80.5 -60.5q6 -10 14.5 -30.5t11.5 -42t-4 -37t-32 -15.5h-336q-41 0 -50 19.5t-1 46z" />
<glyph unicode="&#xea;" horiz-adv-x="1583" d="M61 752q2 78 8.5 146.5t18.5 129.5q23 98 61.5 178t110.5 146q37 31 88 63.5t122 58t163 42t209 14.5q119 -2 212 -28.5t163.5 -65.5t118.5 -84t75 -82q98 -147 111 -404q2 -41 2 -86t-4 -92q-2 -20 -5.5 -57t-13.5 -56q-18 -27 -59 -44t-117 -17h-106.5h-134t-143.5 1 t-135.5 1h-108.5h-62q-23 -31 6 -53q12 -10 36.5 -19.5t66.5 -17.5t105.5 -12t154.5 -4q25 2 51 -2q23 -4 51.5 -11.5t60.5 -21.5q47 -25 76 -71t29 -101q0 -82 -57.5 -135.5t-143.5 -61.5q-35 -4 -62.5 -5t-74.5 -1h-86q-143 -4 -235.5 14.5t-157.5 48.5q-68 33 -123.5 75 t-77.5 65q-104 100 -146 236t-47 313zM186 1821q0 37 12.5 70.5t41.5 56.5q0 2 2 2t4 4l43 35v2l340 288l16 17q4 4 8 6q4 4 7.5 5t7.5 5l4 4q2 0 6 4q4 2 6 4.5t6 2.5q39 25 90 24q47 0 88 -24q4 0 5 -2.5t6 -4.5q8 -4 6 -4l6 -4q2 -2 14 -10l6 -6q4 -4 8.5 -8t10.5 -9 l340 -288v-2l43 -35q2 -4 3 -4t3 -2q27 -23 40 -56.5t12 -70.5t-15.5 -75t-42.5 -71q-6 -8 -14.5 -15t-16.5 -15l-4 -5q-51 -41 -109.5 -48t-105.5 22q-4 4 -6 5t-4 3l-9 4l-49 43v2l-215 182l-217 -182v-2l-51 -43q-2 -2 -3 -2t-3 -2q-8 -4 -10 -8q-47 -29 -105.5 -22 t-109.5 48l-5 5q-10 8 -17 15l-15 15q-29 33 -43.5 71t-14.5 75zM614.5 962.5q-8.5 -26.5 1 -46t50.5 -19.5h335q25 0 32 15.5t4 37t-11 42t-14 30.5q-29 41 -81 60.5t-102 19.5q-100 0 -163 -53q-10 -10 -26.5 -35t-25 -51.5z" />
<glyph unicode="&#xeb;" horiz-adv-x="1628" d="M76 752q4 -176 46 -312.5t146 -236.5q23 -23 78 -65t123 -75q66 -31 158 -49t235 -14h86q47 0 75 1t62 5q86 8 143.5 61.5t57.5 135.5q0 55 -28.5 101t-75.5 71q-33 14 -61.5 21t-51.5 12q-27 4 -51 2q-90 0 -153.5 4t-105.5 12t-66.5 17.5t-37.5 19.5q-29 23 -6 53h62.5 h109t135 -1t143 -1h134h106.5q76 0 117 17.5t60 43.5q10 18 13 55.5t5 57.5q4 47 4 92t-2 86q-13 257 -111 404q-27 37 -74.5 82t-118.5 84t-164 65.5t-212 28.5q-117 2 -209 -14.5t-162.5 -42t-122 -58.5t-88.5 -63q-72 -66 -110.5 -146t-61.5 -178q-12 -61 -18 -130 t-8 -146zM186 1855q4 119 70 189t184 70q137 0 203 -70q59 -68 59 -191q0 -117 -67 -184q-61 -61 -197 -65q-115 4 -182 67q-66 66 -70 184zM629 962.5q8 26.5 24.5 51t26.5 35.5q63 53 164 53q49 0 101 -19.5t81 -60.5q6 -10 14.5 -30.5t11.5 -42t-4 -37t-32 -15.5h-336 q-41 0 -50 19.5t-1 46zM967 1855q0 115 67 189q35 35 81 52.5t106 17.5q137 0 200 -70q61 -68 62 -191q0 -117 -68 -184q-33 -33 -82 -48t-114 -17q-115 4 -183 67q-70 70 -69 184z" />
<glyph unicode="&#xec;" horiz-adv-x="784" d="M4 1991.5q4 64.5 51 111.5q53 53 127 53.5t127 -53.5l248 -243q18 -16 32.5 -40t18.5 -51.5t-2 -57.5t-26 -56q-27 -35 -55.5 -46.5t-57.5 -10.5t-54.5 13.5t-45.5 24.5l-293 203q-4 4 -13 10q-16 12 -24 27q-37 51 -33 115.5zM111 279v985q0 59 22.5 111t60 90t90 60.5 t111.5 22.5q57 0 109.5 -22.5t90.5 -60.5t60.5 -90t22.5 -111v-985q0 -59 -22.5 -110.5t-60.5 -89.5t-90 -60.5t-110 -22.5q-59 0 -111.5 22.5t-90 60.5t-60 89t-22.5 111z" />
<glyph unicode="&#xed;" horiz-adv-x="794" d="M111 279q0 -59 22.5 -110.5t60 -89.5t90 -60.5t111.5 -22.5q57 0 109.5 22.5t90.5 60.5t60.5 89t22.5 111v985q0 59 -22.5 111t-60.5 90t-90 60.5t-110 22.5q-59 0 -111.5 -22.5t-90 -60.5t-60 -90t-22.5 -111v-985zM175 1795q5 28 18.5 52.5t31.5 40.5l250 248 q25 27 58.5 39t68.5 12t69 -12t60 -39q47 -49 51 -113.5t-32 -119.5q-4 -8 -10.5 -13.5t-12.5 -9.5q-8 -6 -14 -10l-295 -205q-20 -14 -47 -25.5t-55.5 -13.5t-57.5 9.5t-55 45.5q-20 27 -26.5 56.5t-1.5 57.5z" />
<glyph unicode="&#xee;" horiz-adv-x="772" d="M-51 1804.5q-2 57.5 39 91.5q2 2 4 2l33 29l249 213q4 4 6.5 5t6.5 5q4 2 6 7q6 6 10 6l4 4v2q2 0 2 1t4 1q0 2 2 3t2 3q29 18 66 14q41 4 66 -14q4 -2 5 -3t5 -3l4 -2v-2l4 -4q2 0 4 -2t6 -4q2 -4 6 -7q6 -6 13 -10l247 -213l31 -29q4 0 6 -2q41 -35 39 -92t-43 -106 q-6 -8 -12 -14.5t-10 -10.5l-4 -2q-35 -29 -79 -36t-79 16q0 2 -6 6q-2 0 -2 1t-2 1v2l-39 31l-160 135l-156 -135l-39 -31v-2q-2 0 -4 -2t-4 -3t-4 -3q-35 -23 -79 -16t-79 36l-4 2q-14 10 -22 25q-41 49 -43 106.5zM111 279v985q0 59 22.5 111t60 90t90 60.5t111.5 22.5 q57 0 109.5 -22.5t90.5 -60.5t60.5 -90t22.5 -111v-985q0 -59 -22.5 -110.5t-60.5 -89.5t-90 -60.5t-110 -22.5q-59 0 -111.5 22.5t-90 60.5t-60 89t-22.5 111z" />
<glyph unicode="&#xef;" horiz-adv-x="790" d="M-86 1839q0 86 49 139q27 25 59.5 38.5t75.5 13.5q105 -1 152 -52q43 -49 43 -139q0 -86 -49 -135q-51 -47 -146 -47q-84 0 -133 49q-51 49 -51 133zM111 279q0 -59 22.5 -110.5t60 -89.5t90 -60.5t111.5 -22.5q57 0 109.5 22.5t90.5 60.5t60.5 89t22.5 111v985 q0 59 -22.5 111t-60.5 90t-90 60.5t-110 22.5q-59 0 -111.5 -22.5t-90 -60.5t-60 -90t-22.5 -111v-985zM487 1839q0 86 50 139q51 51 135 52q102 -1 147 -52q47 -55 45 -139q0 -86 -49 -135q-47 -47 -143 -47q-84 0 -135 49q-49 49 -50 133z" />
<glyph unicode="&#xf1;" horiz-adv-x="1589" d="M76 291v8v31.5t1 78t1 147.5t1 240.5t1 356.5q2 84 28.5 154.5t78 122t128 80t179.5 28.5h51h495h50q100 0 176.5 -28.5t129 -80t79 -122t30.5 -154.5v-356.5v-240.5t1 -147.5t1 -78v-31.5v-8q0 -61 -23.5 -115.5t-64.5 -94.5t-96 -62.5t-119 -22.5q-59 0 -114.5 21.5 t-96.5 62.5q-43 39 -67.5 94t-26.5 121l-2 596q4 68 -23 108q-31 41 -83 41q-51 0 -82 -41q-14 -23 -18.5 -49t-4.5 -59l-2 -596q0 -66 -24.5 -121t-69.5 -94q-41 -41 -95.5 -62.5t-113.5 -21.5q-63 0 -118.5 22.5t-97.5 62.5t-65.5 94t-23.5 116zM226 1763q-1 39 7 80 q12 63 45 119.5t81.5 97.5t109.5 64.5t135 23.5q111 0 175.5 -40t117.5 -105q16 -18 42 -34.5t54 -14.5q31 2 47.5 14t23.5 28.5t10 36t7 33.5q10 37 58.5 66.5t144.5 11.5q37 -8 59.5 -31.5t34 -56.5t13.5 -71.5t-2 -79.5q-6 -66 -37 -123.5t-81 -100.5t-114.5 -65.5 t-138.5 -16.5q-106 4 -172 43t-121 105q-14 20 -42 35.5t-56 13.5q-33 -4 -48.5 -16.5t-22.5 -29.5t-9 -35.5t-6 -31.5q-4 -18 -19.5 -35.5t-40 -29.5t-60.5 -16.5t-83 6.5q-37 8 -61.5 30.5t-37 54t-13.5 70.5z" />
<glyph unicode="&#xf2;" horiz-adv-x="1572" d="M23 754q6 422 215 606q213 188 567 182q356 0 551 -203q199 -201 200 -587q-2 -346 -204 -551q-197 -201 -549 -207q-356 4 -567 205q-207 201 -213 555zM240 2137q4 42 21.5 82t49.5 71q37 37 82 54t92 17t92.5 -17t79.5 -54l338 -336q25 -20 44.5 -53t26.5 -72t-1 -79 t-35 -77q-37 -45 -77 -61.5t-78.5 -13t-74.5 19.5t-65 35l-401 274q-10 6 -19 15q-18 14 -32 34q-25 37 -36 78t-7 83zM565 764q0 -102 64 -162q29 -31 70.5 -45t93.5 -16q106 4 161 61q55 59 60 162q-4 115 -58 172q-31 29 -70.5 44t-92.5 15q-100 0 -164 -53 q-63 -57 -64 -178z" />
<glyph unicode="&#xf3;" horiz-adv-x="1574" d="M23 754q6 -354 213 -555q211 -201 567 -205q352 6 549 207q203 205 204 551q-1 386 -200 587q-195 203 -551 203q-354 6 -567 -182q-209 -184 -215 -606zM565 764q0 121 64 178q63 53 164 53q53 0 93 -15t70 -44q53 -57 58 -172q-5 -103 -60 -162q-55 -57 -161 -61 q-51 2 -93.5 16t-70.5 45q-63 59 -64 162zM582 1733q-7 41 0.5 78.5t26 70.5t44.5 53l334 338q35 35 80 52.5t92 17.5t92 -17.5t82 -52.5q31 -33 49.5 -72.5t21.5 -81.5t-7.5 -83t-34.5 -78q-8 -10 -16.5 -18.5t-16.5 -14.5q-8 -8 -18 -14l-402 -275q-27 -18 -62.5 -34.5 t-74.5 -19.5t-79 13.5t-75 61.5q-29 35 -36 76z" />
<glyph unicode="&#xf4;" horiz-adv-x="1583" d="M23 754q6 422 215 606q213 188 567 182q356 0 551 -203q199 -201 200 -587q-2 -346 -204 -551q-197 -201 -549 -207q-356 4 -567 205q-207 201 -213 555zM188 1821q0 37 12.5 70.5t41.5 56.5q0 2 2 2t4 4l43 35v2l340 288l16 17q4 4 8 6q4 4 7.5 5t7.5 5l4 4q2 0 6 4 q4 2 6 4.5t6 2.5q39 25 90 24q47 0 88 -24q4 0 5.5 -2.5t5.5 -4.5q8 -4 6 -4l6 -4q2 -2 14 -10l6 -6q4 -4 8.5 -8t10.5 -9l340 -288v-2l43 -35q2 -4 3 -4t3 -2q27 -23 40 -56.5t12 -70.5t-15.5 -75t-42.5 -71q-6 -8 -14.5 -15t-16.5 -15l-4 -5q-51 -41 -109.5 -48t-105.5 22 q-4 4 -6 5t-4 3l-8 4l-50 43v2l-215 182l-217 -182v-2l-51 -43q-2 -2 -3 -2t-3 -2q-8 -4 -10 -8q-47 -29 -105.5 -22t-109.5 48l-4 5q-10 8 -17.5 15t-15.5 15q-29 33 -43.5 71t-14.5 75zM565 764q0 -102 64 -162q29 -31 70.5 -45t93.5 -16q106 4 161 61q55 59 60 162 q-4 115 -58 172q-31 29 -70.5 44t-92.5 15q-100 0 -164 -53q-63 -57 -64 -178z" />
<glyph unicode="&#xf5;" horiz-adv-x="1583" d="M23 754q6 422 215 606q213 188 567 182q356 0 551 -203q199 -201 200 -587q-2 -346 -204 -551q-197 -201 -549 -207q-356 4 -567 205q-207 201 -213 555zM407 1720.5q-1 28.5 5 57.5q2 4 6 20.5t8 24.5q12 31 32.5 62.5t51.5 58t75 42t101 15.5q80 0 128 -29.5t87 -77.5 q10 -14 29.5 -27.5t42.5 -8.5q23 2 35 12t17 22.5t6 24.5t3 22q8 29 46 50.5t106 7.5q53 -12 70.5 -63.5t5.5 -112.5q-2 -4 -2 -7.5t-3 -7.5q0 -4 -2 -10q-4 -12 -6 -16q-10 -31 -30.5 -62.5t-52 -58.5t-75.5 -43.5t-102 -16.5q-78 2 -126 30t-87 77q-10 12 -30.5 24.5 t-43.5 10.5t-35 -11.5t-17 -21.5t-7 -24.5t-4 -22.5q-6 -29 -42 -50.5t-105 -6.5q-29 6 -47.5 22t-27.5 41t-10 53.5zM565 764q0 -102 64 -162q29 -31 70.5 -45t93.5 -16q106 4 161 61q55 59 60 162q-4 115 -58 172q-31 29 -70.5 44t-92.5 15q-100 0 -164 -53 q-63 -57 -64 -178z" />
<glyph unicode="&#xf6;" horiz-adv-x="1583" d="M23 754q6 -354 213 -555q211 -201 567 -205q352 6 549 207q203 205 204 551q-1 386 -200 587q-195 203 -551 203q-354 6 -567 -182q-209 -184 -215 -606zM141 1855q4 119 70 189t184 70q137 0 203 -70q59 -68 59 -191q0 -117 -67 -184q-61 -61 -197 -65q-115 4 -182 67 q-66 66 -70 184zM565 764q0 121 64 178q63 53 164 53q53 0 93 -15t70 -44q53 -57 58 -172q-5 -103 -60 -162q-55 -57 -161 -61q-51 2 -93.5 16t-70.5 45q-63 59 -64 162zM922 1855q0 115 67 189q35 35 81 52.5t106 17.5q137 0 200 -70q61 -68 62 -191q0 -117 -68 -184 q-33 -33 -82 -48t-114 -17q-115 4 -183 67q-70 70 -69 184z" />
<glyph unicode="&#xf9;" horiz-adv-x="1521" d="M51 1204v43q0 61 23.5 114.5t63.5 93.5t95.5 62.5t116.5 22.5t114.5 -21.5t94.5 -60.5q45 -39 69.5 -94t24.5 -121l2 -588q0 -33 4.5 -54t18.5 -44q25 -33 78 -33t78 33q25 39 24 98v588q4 137 94 215q41 39 94.5 60.5t114.5 21.5t116.5 -22.5t95.5 -62.5t63.5 -93 t23.5 -115v-43t-1 -101.5t-1 -130t-1 -130t-1 -102.5v-44q-2 -164 -52.5 -289t-146.5 -217q-94 -90 -221 -139t-280 -49q-158 0 -283 49t-219 139q-98 92 -147.5 217t-51.5 289v44t-1 102.5t-1 130t-1 130t-1 101.5zM174 2137q4 42 21.5 82t50.5 71q37 37 82 54t92 17 t92 -17t80 -54l338 -336q25 -20 44 -53t26.5 -72t-1 -79t-34.5 -77q-37 -45 -77 -61.5t-79 -13t-75 19.5t-64 35l-402 274q-10 6 -18 15q-18 14 -33 34q-25 37 -36 78t-7 83z" />
<glyph unicode="&#xfa;" horiz-adv-x="1521" d="M51 1204q0 -41 1 -101.5t1 -130t1 -130t1 -102.5v-44q2 -164 51.5 -288.5t147.5 -217.5q94 -90 219 -139t283 -49q154 0 280.5 49t220.5 139q96 92 146.5 217t52.5 289v44t1 102.5t1 130t1 130t1 101.5v43q0 61 -23.5 114.5t-63.5 93.5t-95 62.5t-117 22.5 q-61 0 -114.5 -21.5t-94.5 -60.5q-90 -78 -94 -215v-588q0 -59 -24 -98q-25 -33 -78 -33t-78 33q-14 23 -18.5 44.5t-4.5 53.5l-2 588q0 66 -24.5 121t-69.5 94q-41 39 -94 60.5t-115 21.5q-61 0 -116.5 -22.5t-95.5 -62.5t-63.5 -93t-23.5 -115v-43zM580 1733 q-7 41 0.5 78.5t26 70.5t44.5 53l334 338q35 35 80 52.5t92 17.5t92 -17.5t82 -52.5q31 -33 49.5 -72.5t21.5 -81.5t-7.5 -83t-34.5 -78q-8 -10 -16.5 -18.5t-16.5 -14.5q-8 -8 -18 -14l-402 -275q-27 -18 -62.5 -34.5t-74.5 -19.5t-79 13.5t-75 61.5q-29 35 -36 76z" />
<glyph unicode="&#xfb;" horiz-adv-x="1521" d="M53 1204v43q0 61 23.5 114.5t63.5 93.5t95.5 62.5t116.5 22.5t114.5 -21.5t94.5 -60.5q45 -39 69.5 -94t24.5 -121l2 -588q0 -33 4.5 -54t18.5 -44q25 -33 78 -33t78 33q25 39 24 98v588q4 137 94 215q41 39 94.5 60.5t114.5 21.5t116.5 -22.5t95.5 -62.5t63.5 -93 t23.5 -115v-43t-1 -101.5t-1 -130t-1 -130t-1 -102.5v-44q-2 -164 -52 -289t-146 -217q-94 -90 -221.5 -139t-280.5 -49q-158 0 -283 49t-219 139q-98 92 -147.5 217t-51.5 289v44t-1 102.5t-1 130t-1 130t-1 101.5zM186 1821q0 37 12.5 70.5t41.5 56.5q0 2 2 2t4 4l43 35v2 l340 288l16 17q4 4 8 6q4 4 7.5 5t7.5 5l4 4q2 0 6 4q4 2 6 4.5t6 2.5q39 25 90 24q47 0 88 -24q4 0 5 -2.5t6 -4.5q8 -4 6 -4l6 -4q2 -2 14 -10l6 -6q4 -4 8.5 -8t10.5 -9l340 -288v-2l43 -35q2 -4 3 -4t3 -2q27 -23 40 -56.5t12 -70.5t-15.5 -75t-42.5 -71 q-6 -8 -14.5 -15t-16.5 -15l-4 -5q-51 -41 -109.5 -48t-105.5 22q-4 4 -6 5t-4 3l-9 4l-49 43v2l-215 182l-217 -182v-2l-51 -43q-2 -2 -3 -2t-3 -2q-8 -4 -10 -8q-47 -29 -105.5 -22t-109.5 48l-5 5q-10 8 -17 15l-15 15q-29 33 -43.5 71t-14.5 75z" />
<glyph unicode="&#xfc;" horiz-adv-x="1521" d="M51 1204q0 -41 1 -101.5t1 -130t1 -130t1 -102.5v-44q2 -164 51.5 -288.5t147.5 -217.5q94 -90 219 -139t283 -49q154 0 280.5 49t220.5 139q96 92 146.5 217t52.5 289v44t1 102.5t1 130t1 130t1 101.5v43q0 61 -23.5 114.5t-63.5 93.5t-95 62.5t-117 22.5 q-61 0 -114.5 -21.5t-94.5 -60.5q-90 -78 -94 -215v-588q0 -59 -24 -98q-25 -33 -78 -33t-78 33q-14 23 -18.5 44.5t-4.5 53.5l-2 588q0 66 -24.5 121t-69.5 94q-41 39 -94 60.5t-115 21.5q-61 0 -116.5 -22.5t-95.5 -62.5t-63.5 -93t-23.5 -115v-43zM115 1855q4 119 69 189 q66 70 185 70q136 0 202 -70q59 -68 60 -191q0 -117 -68 -184q-61 -61 -196 -65q-115 4 -183 67q-66 66 -69 184zM895 1855q0 115 68 189q35 35 81 52.5t105 17.5q138 0 201 -70q61 -68 61 -191q0 -117 -68 -184q-33 -33 -82 -48t-114 -17q-115 4 -182 67q-70 70 -70 184z " />
<glyph unicode="&#x2c6;" horiz-adv-x="1687" d="M410 1804.5q-2 57.5 39 91.5q2 2 4 2l32 29l250 213q4 4 6 5t7 5q4 2 6 7q6 6 10 6l4 4v2q2 0 2 1t4 1q0 2 2 3t2 3q29 18 66 14q41 4 65 -14q4 -2 5 -3t6 -3l4 -2v-2l4 -4q2 0 4 -2t6 -4q2 -4 6 -7q6 -6 12 -10l248 -213l31 -29q4 0 6 -2q41 -35 39 -92t-43 -106 q-6 -8 -12 -14.5t-11 -10.5l-4 -2q-35 -29 -79 -36t-78 16q0 2 -6 6q-2 0 -2.5 1t-2.5 1v2l-38 31l-160 135l-156 -135l-39 -31v-2q-2 0 -4 -2t-4 -3t-4 -3q-35 -23 -79 -16t-79 36l-4 2q-14 10 -22 25q-41 49 -43 106.5z" />
<glyph unicode="&#x2dc;" d="M540 2480q-1 39 7 80q2 8 7 31.5t9 31.5q14 39 42 83t71 79t102.5 57.5t139.5 22.5q111 0 175 -40t117 -105q16 -18 42 -36t55 -13q33 2 49 15t23 29.5t9.5 35t6.5 32.5q10 37 58 66.5t144 11.5q37 -8 61.5 -31.5t37 -56.5t13.5 -73t-7 -79q0 -6 -4 -18q-2 -6 -4 -14 q-2 -6 -3 -13.5t-3 -11.5q-16 -41 -44 -84t-71 -80t-102.5 -60.5t-139.5 -23.5q-106 4 -171.5 43t-121.5 105q-14 20 -41.5 35.5t-56.5 13.5q-33 -4 -48 -16.5t-22.5 -30t-9.5 -35.5t-6 -31q-4 -18 -19.5 -35.5t-40 -30t-60.5 -16.5t-83 6q-37 8 -61.5 31t-36.5 54.5 t-13 70.5z" />
<glyph unicode="&#x2000;" horiz-adv-x="1563" />
<glyph unicode="&#x2001;" horiz-adv-x="3127" />
<glyph unicode="&#x2002;" horiz-adv-x="1563" />
<glyph unicode="&#x2003;" horiz-adv-x="3127" />
<glyph unicode="&#x2004;" horiz-adv-x="1042" />
<glyph unicode="&#x2005;" horiz-adv-x="781" />
<glyph unicode="&#x2006;" horiz-adv-x="521" />
<glyph unicode="&#x2007;" horiz-adv-x="521" />
<glyph unicode="&#x2008;" horiz-adv-x="390" />
<glyph unicode="&#x2009;" horiz-adv-x="625" />
<glyph unicode="&#x200a;" horiz-adv-x="173" />
<glyph unicode="&#x2018;" horiz-adv-x="655" d="M77 1207.5q1 66.5 17 131.5q14 63 40 114.5t52 86.5q41 55 79 65.5t61 -12.5q14 -14 12 -33.5t-11.5 -42t-18.5 -48t-9 -54.5q4 -57 35 -79.5t53 -26.5q76 -12 121 -58q33 -31 47 -70.5t16 -86.5q-2 -61 -16 -103.5t-47 -68.5q-55 -55 -160 -54q-43 0 -75.5 10.5 t-59.5 28.5q-45 27 -76 73t-46 103.5t-14 124z" />
<glyph unicode="&#x2019;" horiz-adv-x="626" d="M61 2007q2 61 16.5 103t47.5 69q55 55 160 53q43 0 75.5 -10.5t59.5 -28.5q45 -27 75.5 -72.5t46 -103t14.5 -124t-17 -132.5q-14 -63 -40 -114.5t-53 -85.5q-41 -55 -78.5 -65.5t-60.5 11.5q-14 14 -12 34t11 42.5t18.5 48t9.5 54.5q-4 57 -35 79.5t-53 26.5 q-76 12 -121 57q-33 31 -47.5 71t-16.5 87z" />
<glyph unicode="&#x201a;" horiz-adv-x="702" d="M63 256q2 141 74 197q63 68 185 63q49 0 86.5 -12t68.5 -35q51 -31 86 -83t52.5 -118.5t17.5 -142.5t-21 -152q-16 -72 -44.5 -131t-59.5 -100q-49 -66 -93 -76t-67 15q-18 16 -15 38.5t13 48t20.5 55.5t10.5 62q-2 33 -13.5 55.5t-26.5 37t-31.5 21.5t-29.5 11 q-84 12 -139 64q-70 68 -74 182z" />
<glyph unicode="&#x201c;" horiz-adv-x="1198" d="M97 1207.5q1 66.5 18 131.5q14 63 39.5 114.5t52.5 86.5q41 55 79 65.5t60 -12.5q14 -14 12 -33.5t-11 -42t-18.5 -48t-9.5 -54.5q4 -57 35 -79.5t54 -26.5q76 -12 120 -58q33 -31 47.5 -70.5t16.5 -86.5q-2 -61 -16.5 -103.5t-47.5 -68.5q-55 -55 -159 -54 q-43 0 -76 10.5t-60 28.5q-45 27 -75.5 73t-46 103.5t-14.5 124zM617 1207.5q1 66.5 18 131.5q14 63 39.5 114.5t52.5 86.5q41 55 79 65.5t60 -12.5q14 -14 12.5 -33.5t-11 -42t-18.5 -48t-9 -54.5q4 -57 34.5 -79.5t53.5 -26.5q76 -12 121 -58q33 -31 47 -70.5t16 -86.5 q-2 -61 -16.5 -103.5t-46.5 -68.5q-55 -55 -160 -54q-43 0 -75.5 10.5t-59.5 28.5q-45 27 -76 73t-46.5 103.5t-14.5 124z" />
<glyph unicode="&#x201d;" horiz-adv-x="1142" d="M61 2007q2 61 16.5 103t47.5 69q55 55 160 53q43 0 75.5 -10.5t59.5 -28.5q45 -27 75.5 -72.5t46 -103t14.5 -124t-17 -132.5q-14 -63 -40 -114.5t-53 -85.5q-41 -55 -78.5 -65.5t-60.5 11.5q-14 14 -12 34t11 42.5t18.5 48t9.5 54.5q-4 57 -35 79.5t-53 26.5 q-76 12 -121 57q-33 31 -47.5 71t-16.5 87zM582 2007q2 61 16 103t47 69q55 55 160 53q43 0 75.5 -10.5t59.5 -28.5q45 -27 76 -72.5t46 -103t14 -124t-17 -132.5q-14 -63 -40 -114.5t-52 -85.5q-41 -55 -79 -65.5t-61 11.5q-14 14 -12 34t11.5 42.5t18.5 48t9 54.5 q-4 57 -35 79.5t-53 26.5q-76 12 -121 57q-33 31 -47 71t-16 87z" />
<glyph unicode="&#x201e;" horiz-adv-x="1329" d="M66 256q2 141 73 197q63 68 185 63q49 0 86.5 -12t68.5 -35q51 -31 86 -83t52.5 -118.5t17.5 -142.5t-21 -152q-16 -72 -44.5 -131t-59.5 -100q-49 -66 -93 -76t-67 15q-18 16 -15 38.5t13 48t20.5 55.5t10.5 62q-2 33 -13.5 55.5t-26.5 37t-31.5 21.5t-28.5 11 q-84 12 -140 64q-70 68 -73 182zM680 256q2 141 74 197q63 68 184 63q49 0 87 -12t69 -35q51 -31 85.5 -83t52 -118.5t17.5 -142.5t-20 -152q-16 -72 -45 -131t-60 -100q-49 -66 -93 -76t-66 15q-18 16 -15.5 38.5t13 48t20.5 55.5t10 62q-2 33 -13 55.5t-26.5 37t-32 21.5 t-28.5 11q-84 12 -139 64q-70 68 -74 182z" />
<glyph unicode="&#x2026;" horiz-adv-x="1947" d="M96 262q0 57 18.5 102.5t53.5 79.5q61 70 180 70q59 0 107.5 -16.5t83.5 -51.5q70 -74 69 -184q-6 -144 -69 -205q-35 -31 -83 -45t-108 -14q-61 0 -106 17.5t-78 50.5q-31 35 -49.5 83t-18.5 113zM719 262q0 57 18.5 102.5t53.5 79.5q61 70 180 70q59 0 107 -16.5 t83 -51.5q70 -74 70 -184q-7 -144 -70 -205q-35 -31 -83 -45t-107 -14q-61 0 -106.5 17.5t-78.5 50.5q-31 35 -49 83t-18 113zM1341 262q0 57 18.5 102.5t53.5 79.5q61 70 180 70q59 0 107.5 -16.5t83.5 -51.5q70 -74 69 -184q-6 -144 -69 -205q-35 -31 -83 -45t-108 -14 q-61 0 -106 17.5t-78 50.5q-31 35 -49.5 83t-18.5 113z" />
<glyph unicode="&#x202f;" horiz-adv-x="625" />
<glyph unicode="&#x205f;" horiz-adv-x="781" />
<glyph unicode="&#x25fc;" horiz-adv-x="1536" d="M0 0v1536h1536v-1536h-1536z" />
</font>
</defs>
</svg>
